<svg width="25" height="23" viewBox="0 0 25 23" fill="none" xmlns="http://www.w3.org/2000/svg">
<path fill-rule="evenodd" clip-rule="evenodd" d="M21.2498 2.52275V6.62715C21.7423 6.62715 22.23 6.72488 22.685 6.91475C23.14 7.10462 23.5534 7.38292 23.9016 7.73376C24.2498 8.0846 24.5261 8.50111 24.7145 8.95951C24.903 9.4179 25 9.9092 25 10.4054C25 10.9015 24.903 11.3928 24.7145 11.8512C24.5261 12.3096 24.2498 12.7261 23.9016 13.077C23.5534 13.4278 23.14 13.7061 22.685 13.896C22.23 14.0859 21.7423 14.1836 21.2498 14.1836V17.9618C21.2498 20.0373 18.8985 21.2224 17.2497 19.9768L14.6746 18.0298C13.2981 16.9901 11.6954 16.2959 9.9994 16.0047V19.5864C9.99953 20.4098 9.70425 21.2054 9.16799 21.8266C8.63172 22.4479 7.89063 22.8529 7.0813 22.967C6.27198 23.0812 5.44899 22.8967 4.76404 22.4476C4.07909 21.9985 3.57835 21.3152 3.35413 20.5234L1.39155 13.6017C0.685298 12.7614 0.225678 11.7393 0.0643591 10.6503C-0.09696 9.56131 0.0464167 8.44855 0.478373 7.43712C0.910328 6.42569 1.61374 5.5557 2.50954 4.92493C3.40533 4.29416 4.458 3.92763 5.54922 3.86653L9.32187 3.65495C11.1678 3.55166 12.9629 3.00822 14.5596 2.06936L17.4897 0.346494C19.1573 -0.632065 21.2498 0.578224 21.2498 2.52275ZM4.54168 15.5412L5.75798 19.832C5.81651 20.0397 5.94766 20.2191 6.12721 20.3369C6.30676 20.4548 6.52257 20.5033 6.73481 20.4733C6.94704 20.4434 7.14136 20.3371 7.28187 20.1741C7.42239 20.0111 7.49962 19.8023 7.4993 19.5864V15.7956L5.54922 15.6861C5.21002 15.6655 4.87306 15.617 4.54168 15.5412ZM18.7497 2.52275L15.8184 4.24687C14.0382 5.29434 12.0521 5.93655 9.9994 6.12842V13.4569C12.2332 13.7667 14.3596 14.6445 16.1746 16.0148L18.7497 17.9618V2.52275ZM7.4993 6.27955L5.68673 6.38031C4.8435 6.42721 4.04837 6.7909 3.45828 7.39957C2.8682 8.00824 2.52604 8.81767 2.49935 9.66808C2.47266 10.5185 2.76339 11.3481 3.31413 11.9931C3.86487 12.6381 4.63562 13.0517 5.47422 13.1521L5.68673 13.171L7.4993 13.2718V6.27955ZM21.2498 9.14596V11.6648C21.5685 11.6644 21.8749 11.5415 22.1066 11.3211C22.3383 11.1008 22.4777 10.7996 22.4964 10.4792C22.515 10.1587 22.4116 9.84319 22.2071 9.59704C22.0026 9.35088 21.7125 9.19269 21.3961 9.15478L21.2498 9.14596Z" fill="#F0F0F0"/>
</svg>
