<svg width="32" height="25" viewBox="0 0 32 25" fill="none" xmlns="http://www.w3.org/2000/svg">
<path fill-rule="evenodd" clip-rule="evenodd" d="M11 9C11.7956 9 12.5587 8.68393 13.1213 8.12132C13.6839 7.55871 14 6.79565 14 6C14 5.20435 13.6839 4.44129 13.1213 3.87868C12.5587 3.31607 11.7956 3 11 3C10.2044 3 9.44129 3.31607 8.87868 3.87868C8.31607 4.44129 8 5.20435 8 6C8 6.79565 8.31607 7.55871 8.87868 8.12132C9.44129 8.68393 10.2044 9 11 9ZM11 12C12.5913 12 14.1174 11.3679 15.2426 10.2426C16.3679 9.11742 17 7.5913 17 6C17 4.4087 16.3679 2.88258 15.2426 1.75736C14.1174 0.632141 12.5913 0 11 0C9.4087 0 7.88258 0.632141 6.75736 1.75736C5.63214 2.88258 5 4.4087 5 6C5 7.5913 5.63214 9.11742 6.75736 10.2426C7.88258 11.3679 9.4087 12 11 12ZM4.942 17.772C3.388 18.852 3 19.898 3 20.384C3 21.276 3.724 22 4.616 22H17.384C17.8123 21.9989 18.2227 21.8283 18.5255 21.5255C18.8283 21.2227 18.9989 20.8123 19 20.384C19 19.896 18.612 18.85 17.058 17.772C15.584 16.75 13.438 16 11 16C8.562 16 6.416 16.75 4.942 17.772ZM0 20.384C0 16.692 4.95 13 11 13C13.36 13 15.556 13.562 17.354 14.468C19.0758 13.4947 21.0222 12.9886 23 13C27.95 13 32 16.076 32 19.154C32 20.174 31.5948 21.1523 30.8735 21.8735C30.1523 22.5948 29.174 23 28.154 23H21.188C20.356 24.208 18.962 25 17.384 25H4.616C3.39209 24.9989 2.2186 24.5123 1.35316 23.6468C0.487727 22.7814 0.00105921 21.6079 0 20.384ZM21.982 20H28.154C28.622 20 29 19.62 29 19.154C29 18.948 28.808 18.21 27.624 17.374C26.516 16.588 24.874 16 23 16C21.966 16 21.002 16.18 20.16 16.472C21.212 17.54 21.868 18.764 21.982 20ZM25 7C25 7.53043 24.7893 8.03914 24.4142 8.41421C24.0391 8.78929 23.5304 9 23 9C22.4696 9 21.9609 8.78929 21.5858 8.41421C21.2107 8.03914 21 7.53043 21 7C21 6.46957 21.2107 5.96086 21.5858 5.58579C21.9609 5.21071 22.4696 5 23 5C23.5304 5 24.0391 5.21071 24.4142 5.58579C24.7893 5.96086 25 6.46957 25 7ZM28 7C28 8.32608 27.4732 9.59785 26.5355 10.5355C25.5979 11.4732 24.3261 12 23 12C21.6739 12 20.4021 11.4732 19.4645 10.5355C18.5268 9.59785 18 8.32608 18 7C18 5.67392 18.5268 4.40215 19.4645 3.46447C20.4021 2.52678 21.6739 2 23 2C24.3261 2 25.5979 2.52678 26.5355 3.46447C27.4732 4.40215 28 5.67392 28 7Z" fill="#F0F0F0"/>
</svg>
