<svg width="16" height="14" viewBox="0 0 16 14" fill="none" xmlns="http://www.w3.org/2000/svg">
<path d="M4.66667 5.33333L3 7L4.66667 8.66667M7.16667 1.16667V12.8333M1.33333 12.8333H14.6667C14.8877 12.8333 15.0996 12.7455 15.2559 12.5893C15.4122 12.433 15.5 12.221 15.5 12V2C15.5 1.77899 15.4122 1.56703 15.2559 1.41075C15.0996 1.25447 14.8877 1.16667 14.6667 1.16667H1.33333C1.11232 1.16667 0.900358 1.25447 0.744078 1.41075C0.587797 1.56703 0.5 1.77899 0.5 2V12C0.5 12.221 0.587797 12.433 0.744078 12.5893C0.900358 12.7455 1.11232 12.8333 1.33333 12.8333Z" stroke="white" stroke-linecap="round" stroke-linejoin="round"/>
</svg>
