<?xml version="1.0" encoding="utf-8"?>
<svg xmlns="http://www.w3.org/2000/svg" xmlns:xlink="http://www.w3.org/1999/xlink" version= "1.1" width="1080px" height="2299px" viewBox="0 0 1080 2299">
<g id="layer1" opacity="0.0">
<g style="fill:rgb(0,0,0); fill-opacity:1.0; stroke-linejoin: miter">
<path d="M377.0156,1047.3962L354.73456,1046.9114Q352.30057,1050.2919,352.37097,1053.1534Q352.63882,1056.1515,353.12473,1057.05Q353.64966,1058.5381,354.63187,1060.3423Q357.97177,1067.1517,378.47357,1090.326L400.22327,1091.0929Q401.96088,1088.492,401.6681,1085.8916Q401.01184,1082.0249,399.20752,1078.9689Q395.88498,1072.187,377.0156,1047.3962"/>
</g>
<g style="fill:rgb(0,0,0); fill-opacity:1.0; stroke-linejoin: miter">
<path d="M473.60248,1048.037L451.8399,1047.338L402.11197,1118.6643L401.5089,1173.5748Q408.2848,1175.8398,412.3337,1175.8616Q417.25992,1175.9598,425.44852,1174.3002L425.8361,1124.8876Q462.09375,1076.3799,469.0588,1064.6926Q472.69052,1059.1619,474.6733,1053.5638Q475.7682,1049.927,473.60248,1048.037"/>
</g>
<g style="fill:rgb(0,0,0); fill-opacity:1.0; stroke-linejoin: miter">
<path d="M556.81525,1049.7565L557.5711,1067.9521Q549.1463,1070.555,541.6606,1074.6425Q536.728,1077.4591,532.90845,1082.0352Q529.09735,1086.6648,526.9218,1093.7192Q525.843,1097.2202,525.2098,1101.0632Q524.57654,1104.9064,524.40765,1108.8795L524.35956,1112.8322Q524.4909,1120.8556,526.6302,1127.7043L527.8371,1130.923Q529.1831,1133.989,531.01514,1136.4945Q535.87054,1144.7499,556.62555,1153.1412L556.873,1175.7383Q543.8314,1174.8202,536.20825,1170.8068Q524.6188,1165.3116,516.93225,1156.7004Q500.369,1137.016,499.6302,1113.0898Q499.44333,1100.8839,503.70703,1089.1268Q504.17328,1087.0448,508.6676,1078.0732Q512.5258,1071.0492,517.36847,1065.6278Q526.34753,1055.5696,539.71136,1050.2615Q552.8433,1045.288,556.81525,1049.7565"/>
</g>
<g style="fill:rgb(0,0,0); fill-opacity:1.0; stroke-linejoin: miter">
<path d="M571.43384,1049.675L570.7392,1067.8735Q579.1727,1070.448,586.6722,1074.5103Q591.6142,1077.3102,595.4491,1081.8734Q599.27576,1086.4902,601.4749,1093.5374Q602.5655,1097.0348,603.2116,1100.8756Q603.8578,1104.7166,604.04,1108.6891L604.1013,1112.6416Q603.99695,1120.6653,601.8807,1127.5212L600.6846,1130.7438Q599.3489,1133.8142,597.52527,1136.3258Q592.6976,1144.5973,571.9708,1153.0586L571.79926,1175.6566Q584.8377,1174.6938,592.44745,1170.6555Q604.0183,1165.1216,611.6758,1156.4844Q628.17303,1136.7441,628.83136,1112.8158Q628.9772,1100.6094,624.6741,1088.8667Q624.20087,1086.7863,619.67645,1077.8298Q615.79474,1070.8188,610.93384,1065.414Q601.921,1055.3861,588.5394,1050.123Q575.475,1045.1958,571.43384,1049.675"/>
</g>
<g style="fill:rgb(0,0,0); fill-opacity:1.0; stroke-linejoin: miter">
<path d="M690.4636,1131.295L690.19543,1049.5006Q682.534,1046.4106,677.6661,1046.5801Q673.5164,1046.57,665.3264,1050.497L665.35846,1133.2336Q668.93915,1143.9991,672.54175,1150.4769Q675.26636,1155.6151,681.4833,1161.8438Q690.4385,1170.2264,697.35516,1173.5459Q702.6336,1176.3047,708.9686,1175.7191L713.3799,1175.1276L714.56055,1154.8981Q702.9451,1150.4335,699.1045,1146.333Q694.9129,1142.5658,690.4636,1131.295"/>
</g>
<g style="fill:rgb(0,0,0); fill-opacity:1.0; stroke-linejoin: miter">
</g>
<g style="fill:rgb(0,0,0); fill-opacity:1.0; stroke-linejoin: miter">
<path d="M752.42957,1131.1952L751.9208,1049.4022Q759.7285,1046.195,764.4218,1046.3625Q768.5713,1046.313,776.7983,1050.1622L777.55194,1132.8954Q774.07355,1143.6941,770.5327,1150.206Q767.8572,1155.3701,761.6997,1161.6575Q746.07684,1177.0173,734.74756,1175.8212Q732.84375,1175.6989,729.9306,1175.2433L728.55786,1155.0261Q740.1304,1150.4514,743.93195,1146.3147Q748.0876,1142.5079,752.42957,1131.1952"/>
</g>
<g style="fill:rgb(0,0,0); fill-opacity:1.0; stroke-linejoin: miter">
<path d="M809.78,1068.53L810.21875,1050.2231Q813.4101,1048.0667,816.16315,1047.1871Q818.42584,1046.422,821.9472,1046.2957Q831.69116,1046.1078,836.1903,1049.369L837.3874,1050.2642L837.92645,1069.2936Q827.60754,1071.9437,822.1742,1071.8015Q817.39667,1071.8231,809.78,1068.53"/>
</g>
<g style="fill:rgb(0,0,0); fill-opacity:1.0; stroke-linejoin: miter">
<path d="M853.20514,1175.6599L871.187,1176.3549L874.7145,1172.9258L874.1051,1070.8994L912.4563,1071.1804L915.7018,1067.6107L916.8901,1050.9335L913.21387,1047.0399L852.1997,1046.9915L849.3185,1049.9083L850.49164,1171.7115L853.20514,1175.6599"/>
</g>
<g style="fill:rgb(0,0,0); fill-opacity:1.0; stroke-linejoin: miter">
<path d="M949.37366,1052.2467L952.786,1047.7278L970.51465,1047.9072L973.6749,1050.9243L973.7844,1085.9989L970.12537,1089.7216L953.79565,1090.0006L949.0142,1084.5071L949.37366,1052.2467"/>
</g>
<g style="fill:rgb(0,0,0); fill-opacity:1.0; stroke-linejoin: miter">
<path d="M1031.3313,1052.2212L1036.2133,1047.6129L1051.569,1047.8187L1055.3895,1051.1807L1055.6206,1170.3247L1050.8774,1174.6658L1035.3015,1174.5305L1031.1691,1171.3406L1031.3468,1121.9635L973.7622,1121.8872L973.71326,1171.3359L969.73486,1174.5485L952.8461,1174.6799L948.8638,1171.0679L949.8688,1103.0275L954.2087,1099.102L1030.8003,1098.9775L1031.3313,1052.2212"/>
</g>
<g style="fill:rgb(0,0,0); fill-opacity:1.0; stroke-linejoin: miter">
<path d="M995.0,530.0005L995.5,526.0005L996.0,522.0005L995.0,530.0005"/>
</g>
<g style="fill:rgb(0,0,0); fill-opacity:1.0; stroke-linejoin: miter">
<path d="M-687.54297,530.0005L-688.04297,526.0005L-688.54297,522.0005L-687.54297,530.0005"/>
</g>
<g style="fill:rgb(0,0,0); fill-opacity:1.0; stroke-linejoin: miter">
<path d="M271.22824,1105.0675L272.86322,1111.201Q278.52994,1136.3127,278.77112,1143.6691Q279.85828,1154.6696,278.9039,1162.4913Q278.1826,1170.5994,275.21368,1180.2313Q269.24536,1197.6108,264.27927,1206.6917Q250.84752,1230.4375,234.69798,1243.3Q222.63318,1253.4844,190.3562,1267.3987L190.33876,1163.9076L192.37721,1159.2019Q199.0252,1146.3065,213.57587,1136.9065Q228.32272,1127.0826,271.22824,1105.0675 M155.83424,1010.0826L155.81535,1012.2714L155.79211,1025.5059Q177.6385,1026.4756,200.7783,1034.1627Q222.72562,1044.7725,235.00726,1055.0835L155.63177,1101.148L155.23805,1290.3302L153.72855,1290.403L159.9895,1290.7053Q159.56155,1203.7906,160.73434,1179.092Q161.8597,1152.3318,168.66849,1146.6458Q171.0512,1143.3463,173.10678,1175.8439Q174.20625,1222.7142,174.30586,1288.559Q202.4227,1285.1255,223.6954,1274.5995Q234.79962,1269.4385,253.50642,1250.9768Q276.14972,1226.6512,284.5334,1205.339Q293.13885,1186.1067,294.38208,1157.0435Q294.54523,1142.9207,291.9159,1125.865Q290.01465,1114.4193,277.16013,1083.7334Q212.7723,1118.8442,206.45967,1123.5548Q189.8313,1134.7698,184.57301,1143.31L180.21481,1131.0511L271.35406,1075.5641L262.8769,1064.085L171.24945,1120.5139L165.83188,1111.8998L258.6045,1056.6785Q240.49408,1038.6406,206.64653,1020.64935Q180.1371,1012.08606,155.83424,1010.0826 Z"/>
</g>
<g style="fill:rgb(0,0,0); fill-opacity:1.0; stroke-linejoin: miter">
</g>
<g style="fill:rgb(0,0,0); fill-opacity:1.0; stroke-linejoin: miter">
<path d="M37.71017,1103.9213L46.81002,1109.0571Q84.291504,1130.2073,103.21301,1144.2611Q115.30828,1154.6692,118.57226,1164.7804L119.22446,1167.3485L119.71559,1268.4707Q90.80061,1255.8065,88.115005,1253.7739Q73.556015,1245.8765,56.89986,1225.373Q45.457405,1210.1873,35.937077,1183.6222Q30.883263,1166.3684,30.394787,1160.3517Q29.15638,1151.8469,29.48358,1144.6279Q31.001623,1123.8376,37.71017,1103.9213 M151.633,1010.19904L144.58044,1010.7144Q119.1785,1013.09705,94.00039,1023.9607Q81.419174,1029.1044,48.85255,1056.6782L141.62517,1111.8997L136.20755,1120.5139L44.580143,1064.0848L36.10296,1075.564L127.242256,1131.0513L122.88407,1143.3099Q116.05466,1133.5056,103.079094,1125.1792Q79.991455,1110.33,30.296947,1083.7334Q13.523781,1117.9069,12.802055,1152.8678Q13.130171,1165.6097,14.891434,1176.165L17.205326,1187.038Q19.974676,1197.7963,24.565865,1208.097Q32.361847,1227.0884,52.990723,1250.6882Q62.976456,1262.6914,89.8264,1277.7034Q104.51796,1284.365,133.15118,1288.5586Q133.154,1222.594,134.47696,1174.7877Q136.42746,1143.3412,138.82506,1146.6Q145.66968,1153.2867,146.58255,1177.978Q147.9316,1202.3237,147.46756,1290.7053L153.7285,1290.4032L152.219,1290.3301L151.8251,1101.5474L73.99966,1055.8083Q96.29537,1038.2601,116.74545,1030.977Q139.0693,1024.1636,151.66618,1025.4215L151.633,1010.19904 Z"/>
</g>
<g style="fill:rgb(0,0,0); fill-opacity:1.0; stroke-linejoin: miter">
<path d="M147.61627,1010.54254L148.08849,1010.4871Q151.06113,1010.1042,153.72937,1010.0903Q155.88167,1010.06946,160.89613,1010.4952L158.63367,1025.641L149.19606,1025.2704L147.61627,1010.54254"/>
</g>
<g style="fill:rgb(0,0,0); fill-opacity:1.0; stroke-linejoin: miter">
<path d="M147.45169,1290.7158L150.14384,1100.6241L153.56429,1102.365L157.61996,1100.0017L159.9926,1290.6174L147.45169,1290.7158"/>
</g>
<g style="fill:rgb(255,255,255); fill-opacity:1.0; stroke-linejoin: miter">
<path d="M154.13272,1122.1045L158.25092,1126.9479L162.36911,1131.7914Q158.08896,1137.6002,153.80879,1143.409Q149.33607,1137.0975,144.86336,1130.7861L154.13272,1122.1045"/>
</g>
</g>
<g id="layer2">
<g style="fill:rgb(0,0,0); fill-opacity:1.0; stroke-linejoin: miter">
</g>
<g>
<g style="fill:url(#grad0); fill-opacity:1.0; stroke-linejoin: miter">
<path d="M377.0156,1047.3961L354.73456,1046.9113C352.70496,1050.0088,350.67535,1053.1063,354.63187,1060.3422C358.58838,1067.578,368.53098,1078.9519,378.47357,1090.3259L400.22324,1091.0928C401.64935,1088.6721,403.07544,1086.2515,399.20752,1078.9688C395.3396,1071.686,386.1776,1059.541,377.0156,1047.3961 Z"/>
</g>
<g style="fill:url(#grad0); fill-opacity:1.0; stroke-linejoin: miter">
<path d="M473.60248,1048.037L451.8399,1047.338L402.11197,1118.6643L401.50888,1173.5747C404.92633,1174.6577,408.34375,1175.7406,412.33368,1175.8615C412.5927,1175.8693,412.8542,1175.873,413.1179,1175.873C416.91605,1175.873,421.18225,1175.0867,425.4485,1174.3002L425.8361,1124.8876C443.46686,1101.1943,461.0977,1077.5011,469.05878,1064.6926C477.01987,1051.8842,475.31116,1049.9606,473.60248,1048.037 Z"/>
</g>
<g style="fill:url(#grad0); fill-opacity:1.0; stroke-linejoin: miter">
<path d="M556.81525,1049.7565L557.5711,1067.9521C546.54675,1071.7526,535.5224,1075.553,529.5063,1087.271C523.4902,1098.989,522.4825,1118.6249,527.8371,1130.923C533.1917,1143.2211,544.9086,1148.1812,556.62555,1153.1412L556.87305,1175.7383C551.34406,1175.3016,545.81506,1174.865,538.16315,1171.6654C530.5112,1168.4658,520.7363,1162.5037,512.8506,1151.6869C504.96487,1140.8701,498.96823,1125.1987,499.66855,1109.0696C500.36887,1092.9404,507.7663,1076.3535,517.36847,1065.6278C526.97064,1054.9021,538.77765,1050.0376,545.7196,1048.3694C547.86206,1047.8545,549.5411,1047.644,550.8998,1047.644C553.9435,1047.644,555.3794,1048.7002,556.81525,1049.7565 Z"/>
</g>
<g style="fill:url(#grad0); fill-opacity:1.0; stroke-linejoin: miter">
<path d="M571.4339,1049.6752L570.73926,1067.8735C581.77637,1071.6368,592.81354,1075.4001,598.8689,1087.0979C604.92426,1098.7957,605.9979,1118.428,600.68463,1130.7438C595.37134,1143.0596,583.67114,1148.0591,571.9709,1153.0586L571.7993,1175.6566C577.3268,1175.201,582.8543,1174.7456,590.4955,1171.5206C598.13666,1168.2957,607.8913,1162.3005,615.7407,1151.4572C623.59015,1140.6138,629.53406,1124.9225,628.77954,1108.7958C628.025,1092.6691,620.5721,1076.1072,610.9339,1065.414C601.2957,1054.7207,589.4724,1049.8961,582.5249,1048.2511C580.40393,1047.7489,578.73737,1047.5431,577.3865,1047.5431C574.31244,1047.5431,572.87317,1048.6091,571.4339,1049.6752 Z"/>
</g>
<g style="fill:url(#grad0); fill-opacity:1.0; stroke-linejoin: miter">
<path d="M690.4636,1131.2952L690.19543,1049.5007C686.212,1048.0344,682.2284,1046.5679,678.28564,1046.5679C678.07904,1046.5679,677.8725,1046.5719,677.6661,1046.5802C673.5213,1046.7462,669.4238,1048.6216,665.3264,1050.4971L665.35846,1133.2338C667.6555,1139.7775,669.9525,1146.321,673.37445,1151.8887C676.7964,1157.4563,681.34314,1162.0483,686.2222,1166.0723C691.1013,1170.0962,696.3128,1173.552,700.8945,1174.9666C702.93744,1175.5973,704.8551,1175.8221,706.7035,1175.8221C709.00037,1175.8221,711.1901,1175.4749,713.3799,1175.1276L714.56055,1154.8981C708.8406,1152.5824,703.1206,1150.2668,699.1045,1146.333C695.0884,1142.3992,692.776,1136.8472,690.4636,1131.2952 Z"/>
</g>
<g style="fill:url(#grad0); fill-opacity:1.0; stroke-linejoin: miter">
<path d="M752.42957,1131.1953L751.92084,1049.4022C755.9407,1047.8788,759.9604,1046.3555,763.9524,1046.3555C764.10895,1046.3555,764.26544,1046.3578,764.4219,1046.3625C768.5681,1046.4891,772.6832,1048.3257,776.79834,1050.1622L777.552,1132.8954C775.31714,1139.4604,773.0823,1146.0255,769.7135,1151.6256C766.3447,1157.2257,761.84186,1161.8606,757.0011,1165.9307C752.16034,1170.0007,746.9819,1173.5059,742.41394,1174.9637C740.2966,1175.6395,738.31036,1175.8755,736.3945,1175.8755C734.17706,1175.8755,732.05383,1175.5594,729.93066,1175.2433L728.5579,1155.0261C734.2556,1152.6562,739.9533,1150.2865,743.93195,1146.3147C747.9106,1142.3429,750.17004,1136.769,752.42957,1131.1953 Z"/>
</g>
<g style="fill:url(#grad0); fill-opacity:1.0; stroke-linejoin: miter">
<path d="M809.78,1068.5299L810.21875,1050.2231C812.60535,1048.6996,814.9919,1047.176,818.7405,1046.5817C820.0642,1046.3718,821.5578,1046.2777,823.083,1046.2777C825.8769,1046.2777,828.77704,1046.5933,830.93427,1047.0905C834.2691,1047.859,835.82825,1049.0615,837.3874,1050.264L837.92645,1069.2936C832.64496,1070.5518,827.3634,1071.8099,822.81305,1071.8099C822.59845,1071.8099,822.38544,1071.8071,822.1742,1071.8014C817.48315,1071.6742,813.6316,1070.102,809.78,1068.5299 Z"/>
</g>
<g style="fill:url(#grad0); fill-opacity:1.0; stroke-linejoin: miter">
<path d="M853.20514,1175.66L871.187,1176.355L874.7145,1172.9259L874.1051,1070.8995L912.4563,1071.1805L915.7018,1067.6108L916.8901,1050.9336L913.21387,1047.04L852.1997,1046.9916L849.3185,1049.9083L850.49164,1171.7117L853.20514,1175.66 Z"/>
</g>
<g style="fill:url(#grad0); fill-opacity:1.0; stroke-linejoin: miter">
<path d="M949.3737,1052.2467L952.7861,1047.7278L970.5147,1047.9072L973.6749,1050.9243L973.7844,1085.9989L970.1254,1089.7216L953.79565,1090.0006L949.0142,1084.5071L949.3737,1052.2467 Z"/>
</g>
<g style="fill:url(#grad0); fill-opacity:1.0; stroke-linejoin: miter">
<path d="M1031.3313,1052.2212L1036.2133,1047.6129L1051.569,1047.8186L1055.3895,1051.1807L1055.6206,1170.3247L1050.8774,1174.6658L1035.3015,1174.5305L1031.1692,1171.3406L1031.3468,1121.9635L973.76227,1121.8872L973.71326,1171.3359L969.73486,1174.5485L952.8461,1174.6799L948.8638,1171.0679L949.8688,1103.0275L954.2087,1099.102L1030.8004,1098.9775L1031.3313,1052.2212 Z"/>
</g>
</g>
<g style="fill:rgb(0,0,0); fill-opacity:1.0; stroke-linejoin: miter">
<path d="M995.0,530.0005L995.5,526.0005L996.0,522.0005L995.0,530.0005"/>
</g>
<g style="fill:rgb(0,0,0); fill-opacity:1.0; stroke-linejoin: miter">
<path d="M-687.54297,530.0005L-688.04297,526.0005L-688.54297,522.0005L-687.54297,530.0005"/>
</g>
<g style="fill:rgb(0,0,0); fill-opacity:1.0; stroke-linejoin: miter">
</g>
<g>
<g style="fill:url(#grad1); fill-opacity:1.0; stroke-linejoin: miter">
<path d="M271.22824,1105.0675L272.86322,1111.201Q280.81497,1143.0881,279.0908,1160.7139Q278.4853,1169.5265,275.21368,1180.2313Q268.0366,1200.4998,264.27927,1206.6917Q253.64784,1224.4216,248.51628,1229.7169Q241.87555,1237.5833,234.69798,1243.3Q227.43529,1250.8298,190.3562,1267.3987L190.33876,1163.9076L192.37721,1159.2019Q198.28653,1147.7393,210.43997,1139.0386Q223.65865,1129.4789,271.22824,1105.0675 M155.83424,1010.0825L155.81537,1012.2714L155.79213,1025.5059Q172.64801,1025.5552,200.7783,1034.1627Q218.86276,1042.4459,235.00726,1055.0835L155.63177,1101.148L155.58522,1123.5153L162.62274,1131.7561L155.54625,1141.4939L155.23807,1290.3301L153.72855,1290.403L159.98952,1290.7053Q159.49406,1194.6163,161.0546,1173.4055Q162.54317,1151.7845,168.81459,1146.4768Q170.93953,1143.1782,173.10678,1175.8438Q174.33331,1235.3551,174.30588,1288.559Q207.86816,1283.5305,223.6954,1274.5994Q238.15887,1266.7317,253.50642,1250.9768Q273.63382,1229.3542,282.4943,1210.1122Q293.01868,1189.0255,294.38208,1157.0435Q294.5329,1140.8289,291.35815,1123.084Q288.58636,1111.0098,277.16016,1083.7334Q219.92648,1114.9429,208.57947,1122.1327Q191.27345,1133.2692,184.57301,1143.3099L180.21481,1131.0511L271.35406,1075.5641L262.8769,1064.085L171.24947,1120.5139L165.8319,1111.8998L258.6045,1056.6785Q234.62384,1034.6375,206.64655,1020.64935Q185.79654,1013.30066,155.83424,1010.0825 Z"/>
</g>
<g style="fill:url(#grad1); fill-opacity:1.0; stroke-linejoin: miter">
<path d="M37.710167,1103.9213L46.81002,1109.0571Q77.90994,1126.252,103.21301,1144.2611Q116.96036,1156.9471,118.57226,1164.7804L119.224464,1167.3485L119.71558,1268.4707Q94.013405,1257.2137,89.03562,1254.3568Q76.55111,1248.663,56.899857,1225.373Q47.798462,1214.7561,35.937077,1183.6222Q28.991034,1162.2262,29.430195,1146.248Q30.146288,1127.5559,37.710167,1103.9213 M151.633,1010.199L144.58044,1010.7144Q115.08113,1013.91125,90.957825,1025.3806Q77.80067,1032.168,48.85255,1056.6782L141.62515,1111.8997L136.20755,1120.5139L44.58014,1064.0848L36.10296,1075.564L127.242256,1131.0513L122.88407,1143.3099Q118.21727,1135.5293,103.079094,1125.1792Q71.74032,1105.6522,30.296947,1083.7334Q11.633684,1124.1912,12.892663,1155.6724Q14.976406,1211.6615,55.41798,1253.3926Q65.95979,1264.3594,89.82639,1277.7034Q99.79015,1283.1437,133.15118,1288.5586Q133.01483,1235.3473,134.47696,1174.7876Q136.53174,1143.236,138.67542,1146.4299Q144.98398,1152.6288,146.30646,1172.7134Q147.96011,1192.8259,147.46756,1290.7053L153.72849,1290.4031L152.219,1290.3301L151.9094,1141.2141L144.48734,1130.8182L151.8718,1123.9161L151.8251,1101.5474L73.99966,1055.8083Q111.523476,1024.8296,151.6662,1025.4215L151.633,1010.199 Z"/>
</g>
<g style="fill:url(#grad1); fill-opacity:1.0; stroke-linejoin: miter">
<path d="M147.61627,1010.5426C149.5044,1010.32043,151.3925,1010.09845,153.6058,1010.0906C153.64688,1010.09045,153.68806,1010.09033,153.72937,1010.09033C155.91333,1010.09033,158.40474,1010.2928,160.89613,1010.49524L158.63367,1025.6411L149.19606,1025.2704L147.61627,1010.5426 Z"/>
</g>
<g style="fill:url(#grad1); fill-opacity:1.0; stroke-linejoin: miter">
<path d="M157.61996,1100.0017L153.56429,1102.3651L150.14384,1100.6243L149.78638,1125.8663L154.12839,1121.807L157.94705,1126.2806L157.61996,1100.0017 Z"/>
</g>
<g style="fill:url(#grad1); fill-opacity:1.0; stroke-linejoin: miter">
<path d="M158.09126,1137.9918L153.81291,1143.8792L149.6145,1138.0021L147.45169,1290.716L159.9926,1290.6174L158.09126,1137.9918 Z"/>
</g>
</g>
<g style="fill:rgb(255,255,255); fill-opacity:1.0; stroke-linejoin: miter">
</g>
<g style="fill:rgb(255,255,255); fill-opacity:1.0; stroke-linejoin: miter">
</g>
<g>
<g style="fill:url(#grad2); fill-opacity:1.0; stroke-linejoin: miter">
<path d="M1042.7996,1224.9546Q1045.4998,1224.9546,1046.8352,1225.9879Q1048.1396,1226.9899,1048.1412,1229.1293Q1048.1418,1229.8815,1047.7915,1230.8512Q1046.7737,1233.3091,1042.6619,1233.3121L1038.2826,1233.3153L1038.2764,1224.9579L1042.7894,1224.9546Q1042.7946,1224.9546,1042.7996,1224.9546 Z M866.3253,1225.085Q869.1921,1225.085,870.59436,1226.185Q872.03265,1227.3206,872.0342,1229.4601Q872.03503,1230.5967,871.66797,1231.4493Q871.3009,1232.2854,870.5325,1232.9546Q869.69727,1233.674,868.6946,1233.9922Q867.6251,1234.3273,866.1208,1234.3284L866.1542,1234.3284L863.01184,1234.3307L863.005,1225.0874L866.3145,1225.085Q866.31995,1225.085,866.3253,1225.085 Z M726.4732,1225.1884Q729.33954,1225.1884,730.7416,1226.2883Q732.17993,1227.4238,732.1815,1229.5634Q732.1824,1230.7,731.8152,1231.5527Q731.4481,1232.3887,730.67975,1233.0579Q729.8445,1233.7772,728.84186,1234.0956Q727.77234,1234.4307,726.26807,1234.4318L726.30145,1234.4318L723.15906,1234.4341L723.1522,1225.1908L726.4618,1225.1884Q726.4675,1225.1884,726.4732,1225.1884 Z M404.66315,1225.4261Q407.52945,1225.4261,408.93152,1226.5261Q410.3698,1227.6616,410.3714,1229.8011Q410.37225,1230.9377,410.00516,1231.7905Q409.63803,1232.6265,408.86966,1233.2957Q408.03442,1234.015,407.0318,1234.3334Q405.96228,1234.6685,404.45795,1234.6696L404.4914,1234.6696L401.349,1234.6719L401.34216,1225.4286L404.6517,1225.4261Q404.6574,1225.4261,404.66315,1225.4261 Z M819.8907,1225.1193Q822.825,1225.1193,824.22766,1226.4198Q825.6661,1227.756,825.6678,1230.0459L825.70123,1230.0793Q825.703,1232.4193,824.16626,1233.8079Q822.6462,1235.1796,819.88824,1235.1816L816.3949,1235.1842L816.38745,1225.1218L819.8808,1225.1193Q819.88574,1225.1193,819.8907,1225.1193 Z M842.9142,1225.6205Q843.2495,1226.9574,843.668,1227.9098L847.3021,1237.351L838.5603,1237.3574L842.2306,1227.9443Q842.4975,1227.1919,842.9142,1225.6205 Z M752.38684,1225.6874Q752.7221,1227.0243,753.1407,1227.9767L756.7748,1237.4178L748.03296,1237.4243L751.70325,1228.0112Q751.9701,1227.2588,752.38684,1225.6874 Z M1043.5934,1235.7017Q1046.3601,1235.7017,1047.6622,1236.8018Q1048.9668,1237.904,1048.9681,1239.8094Q1048.9689,1240.8124,1048.6853,1241.5981Q1047.651,1244.2566,1043.5894,1244.2596L1043.6227,1244.2262L1038.2906,1244.2301L1038.2844,1235.7056L1043.583,1235.7017Q1043.5883,1235.7017,1043.5934,1235.7017 Z M674.4714,1225.2936Q678.493,1225.2936,680.7821,1227.8296Q681.83606,1228.9822,682.506,1230.837Q683.12573,1232.5748,683.12744,1234.8815Q683.13074,1239.3945,680.7926,1241.9369Q678.47107,1244.4625,674.47626,1244.4655L668.9603,1244.4696L668.94617,1225.2977L674.4621,1225.2936Q674.46674,1225.2936,674.4714,1225.2936 Z M528.5679,1225.4014Q532.5895,1225.4014,534.87866,1227.9374Q535.93256,1229.09,536.60254,1230.9448Q537.2222,1232.6826,537.22394,1234.9893Q537.2273,1239.5023,534.88904,1242.0447Q532.56757,1244.5703,528.57275,1244.5732L523.0569,1244.5774L523.0427,1225.4055L528.5586,1225.4014Q528.56323,1225.4014,528.5679,1225.4014 Z M381.46075,1225.5101Q383.4944,1225.5101,385.0792,1226.1593Q386.6843,1226.81,387.82184,1228.046Q388.85898,1229.1819,389.529,1231.0869Q390.14874,1232.8749,390.15045,1235.1648L390.18387,1235.1648Q390.18555,1237.4214,389.56842,1239.2102Q388.9513,1240.9993,387.8323,1242.2202Q386.6799,1243.4747,385.09247,1244.1277Q383.4215,1244.8142,381.4993,1244.8157Q381.49518,1244.8157,381.4911,1244.8157Q379.57352,1244.8157,377.90512,1244.133Q376.3167,1243.4823,375.16248,1242.2296Q373.99152,1240.9601,373.3885,1239.2222Q372.7687,1237.4342,372.76706,1235.1777Q372.76535,1232.8878,373.38248,1231.0989Q373.9996,1229.3099,375.152,1228.0554Q376.2877,1226.8177,377.89185,1226.1647Q379.47925,1225.5116,381.4516,1225.5101Q381.45618,1225.5101,381.46075,1225.5101 Z M1042.8042,1222.2969Q1042.7958,1222.2969,1042.7875,1222.2969L1032.4912,1222.3046L1032.4922,1223.8088Q1032.4927,1224.327,1032.9941,1224.427Q1033.2952,1224.527,1034.9501,1224.8267L1034.9645,1244.3329L1033.0092,1244.7522Q1032.5078,1244.8528,1032.5082,1245.371L1032.5093,1246.8752L1043.6246,1246.8671Q1047.6863,1246.8641,1049.9915,1244.9067Q1052.2466,1243.0497,1052.2444,1239.8739Q1052.241,1235.3275,1046.8413,1234.2617Q1049.1475,1233.5245,1050.333,1232.0361Q1050.8174,1231.434,1051.1509,1230.4977Q1051.4177,1229.7621,1051.4167,1228.4417Q1051.4159,1227.2047,1050.9303,1226.0183Q1049.3251,1222.2969,1042.8042,1222.2969 Z M1004.7112,1222.392L996.4374,1222.3981L996.4384,1223.8354Q996.4388,1224.3536,996.84,1224.4536Q997.2413,1224.5537,998.8963,1224.8533L998.9025,1233.311L985.6978,1233.3208L985.6916,1224.863Q987.39624,1224.5609,987.78064,1224.4603Q988.1148,1224.3599,988.11444,1223.8417L988.1134,1222.4042L979.873,1222.4103L979.874,1223.8478Q979.8744,1224.366,980.2757,1224.466Q980.6769,1224.5659,982.3319,1224.8655L982.3463,1244.4052L980.391,1244.791Q979.8896,1244.8917,979.89,1245.4432L979.89105,1246.9142L988.1315,1246.9081L988.13043,1245.4371Q988.13,1244.9023,985.67255,1244.4027L985.66614,1235.7444L998.87085,1235.7346L998.87726,1244.393L996.97205,1244.7788Q996.42053,1244.8962,996.42096,1245.431L996.422,1246.902L1004.6958,1246.8959L1004.69476,1245.4249Q1004.69434,1244.9067,1004.29315,1244.8068Q1003.6412,1244.6401,1002.23694,1244.3904L1002.22253,1224.8508L1004.2113,1224.4817Q1004.71265,1224.381,1004.7122,1223.8293L1004.7112,1222.392 Z M970.7467,1222.417L962.523,1222.4231L962.52405,1223.8606Q962.5245,1224.4121,963.0093,1224.5121Q964.8476,1224.8783,964.99854,1224.8783L964.99866,1224.8783L960.40784,1232.6875Q959.8069,1233.7411,959.4233,1234.8779Q959.17194,1234.126,958.41876,1232.7224L953.8332,1224.92Q953.9502,1224.9199,955.7885,1224.5509Q956.28986,1224.4502,956.2895,1223.8986L956.2884,1222.4277L948.0814,1222.4337L948.0825,1223.9047Q948.0829,1224.4563,948.5677,1224.5562Q948.9355,1224.6228,950.2729,1224.956L957.7368,1237.2025L957.7422,1244.4735L955.837,1244.876Q955.28546,1244.9934,955.2858,1245.4949L955.2869,1246.9658L957.744,1246.964L961.07025,1246.9615L963.54407,1246.9597L963.54297,1245.4888Q963.5426,1244.9706,963.02435,1244.8707Q961.9043,1244.6876,961.0684,1244.471L961.06305,1237.2001L968.5589,1224.9426Q968.8932,1224.8755,969.32764,1224.7749Q969.7455,1224.6743,969.97943,1224.6239Q970.21344,1224.5736,970.3304,1224.5402Q970.74817,1224.4395,970.7478,1223.9214L970.7467,1222.417 Z M897.7699,1222.471L880.1859,1222.4839L880.18695,1223.9214Q880.1874,1224.473,880.6889,1224.5729Q880.9898,1224.673,882.64484,1224.9727L882.6593,1244.5289L880.7039,1244.8981Q880.2025,1244.9988,880.20294,1245.5504L880.204,1246.9878L897.78796,1246.9749L897.7838,1241.2919L896.14575,1241.293Q895.4772,1241.2935,895.394,1241.8452Q895.39417,1242.0458,895.1952,1244.3024L886.0188,1244.3092L886.0126,1235.9183L895.0386,1235.9116L895.0367,1233.3209L886.0107,1233.3275L886.00464,1225.1708L895.181,1225.164Q895.23175,1225.866,895.2991,1226.5177Q895.36646,1227.1696,895.4,1227.4705Q895.417,1227.7712,895.417,1227.8047Q895.51764,1228.3892,896.13513,1228.3892Q896.1357,1228.3892,896.13617,1228.3892L897.77423,1228.388L897.7699,1222.471 Z M866.32916,1222.4274Q866.32086,1222.4274,866.31256,1222.4274L859.7102,1222.4323L857.2532,1222.4341L857.2543,1223.9384Q857.25464,1224.4398,857.75616,1224.5564Q858.05707,1224.623,859.7455,1224.9562L859.7599,1244.4623L857.7712,1244.8816Q857.2698,1244.999,857.27014,1245.5005L857.27124,1246.9713L859.7284,1246.9695L863.05457,1246.967L865.5117,1246.9652L865.5106,1245.4944Q865.51044,1245.2771,865.34314,1245.0934Q865.1926,1244.9263,864.9585,1244.8763Q864.69104,1244.8097,863.05273,1244.4598L863.047,1236.7377L865.2367,1236.736Q865.23846,1236.736,865.2402,1236.736Q865.9562,1236.736,866.2565,1236.9358Q866.6076,1237.1696,866.8753,1237.5204L873.2501,1246.2743Q873.6515,1246.9921,874.5529,1246.9921Q874.55365,1246.9921,874.55444,1246.9921L875.64087,1246.9912L877.4962,1246.9899L878.1146,1246.9894L878.1135,1245.4851Q878.11316,1244.9836,877.5949,1244.867L877.62836,1244.867Q877.4612,1244.8169,875.70593,1244.534L870.402,1237.2671Q869.9502,1236.6155,869.29803,1236.2483Q870.53467,1235.98,871.83795,1235.2603Q872.9407,1234.6577,873.7256,1233.7043Q874.5105,1232.751,874.91077,1231.6476Q875.32776,1230.4772,875.3269,1229.2571Q875.3257,1227.6858,874.80664,1226.4159Q874.3043,1225.196,873.167,1224.2609Q872.0464,1223.3424,870.3579,1222.8923Q868.5923,1222.4274,866.32916,1222.4274 Z M925.1153,1222.4507L922.6248,1222.4526L919.71643,1222.4547L916.9083,1222.4568L916.9094,1223.9612Q916.9098,1224.4625,917.4614,1224.5792Q917.4615,1224.5792,917.46155,1224.5792Q917.4955,1224.5792,917.8125,1224.6458Q918.11346,1224.7124,918.63165,1224.8123Q919.1332,1224.8955,919.71826,1224.9786L919.72925,1239.8381Q919.7301,1240.9634,919.7873,1241.463L919.7873,1241.463L905.6095,1223.0Q905.25824,1222.6493,905.09106,1222.5658Q904.8911,1222.4661,904.4424,1222.4661Q904.44073,1222.4661,904.4391,1222.4661L900.2771,1222.4691L900.2782,1223.94Q900.27856,1224.4916,900.7801,1224.5916Q901.08105,1224.6915,902.736,1224.9912L902.7505,1244.5142L900.79517,1244.9167Q900.29376,1245.0173,900.2941,1245.5355L900.2952,1247.0065L908.43536,1247.0004L908.43427,1245.5295Q908.4339,1245.0114,907.9491,1244.9114Q906.71204,1244.6616,905.6589,1244.512L905.64777,1229.5188Q905.64703,1228.5277,905.5813,1227.9447L905.59033,1227.9447L919.80096,1246.407Q920.2689,1246.9911,920.97,1246.9911Q920.9707,1246.9911,920.97144,1246.9911L922.64294,1246.9899L922.62665,1224.9766L924.582,1224.574Q925.11676,1224.4733,925.1164,1223.9551L925.1153,1222.4507 Z M844.6168,1222.5103L841.25714,1222.5127L832.3812,1244.6998L831.0109,1245.1019Q830.5597,1245.2194,830.56006,1245.6539L830.56104,1247.0245L837.5813,1247.0193L837.58026,1245.6487Q837.57996,1245.1974,837.12854,1245.0974L835.72424,1244.6974L837.64276,1239.765L848.22327,1239.7572L850.14905,1244.6866L848.74536,1245.0889Q848.2607,1245.1896,848.261,1245.6409L848.262,1247.0115L855.3157,1247.0062L855.3147,1245.6356Q855.31433,1245.201,854.8629,1245.0844L853.49207,1244.6842L844.6168,1222.5103 Z M819.8933,1222.5284Q819.8861,1222.5284,819.8789,1222.5284L810.6356,1222.5353L810.63666,1223.9728Q810.6371,1224.5244,811.1386,1224.6243Q811.4396,1224.7244,813.09454,1225.024L813.109,1244.5803L811.1536,1244.9495Q810.6522,1245.0502,810.65265,1245.6018L810.6537,1247.0392L818.8607,1247.0332L818.8596,1245.5957Q818.85925,1245.0441,818.3744,1244.9442Q816.78625,1244.6611,816.40173,1244.5277L816.39685,1237.8585L819.89026,1237.856Q824.1692,1237.8528,826.6581,1235.6614Q828.98,1233.6371,828.97736,1230.1104Q828.9733,1224.6489,823.9157,1222.9962L823.9075,1222.9962L823.90753,1223.027Q822.15765,1222.5284,819.8933,1222.5284 Z M754.0895,1222.5771L750.72974,1222.5796L741.8539,1244.7667L740.4835,1245.1688Q740.03235,1245.2863,740.0327,1245.7208L740.0337,1247.0914L747.0539,1247.0862L747.05286,1245.7156Q747.05255,1245.2643,746.6012,1245.1643L745.19684,1244.7643L747.11536,1239.8319L757.69586,1239.8241L759.6217,1244.7535L758.21796,1245.1558Q757.7333,1245.2565,757.73364,1245.7078L757.7346,1247.0784L764.7883,1247.0731L764.7873,1245.7025Q764.787,1245.268,764.3356,1245.1512L762.9647,1244.7511L754.0895,1222.5771 Z M726.47644,1222.5306Q726.46814,1222.5306,726.45984,1222.5306L719.8575,1222.5355L717.4004,1222.5374L717.4015,1224.0417Q717.40186,1224.5431,717.90344,1224.6598Q718.20435,1224.7264,719.89276,1225.0594L719.90717,1244.5657L717.91846,1244.985Q717.41705,1245.1023,717.4174,1245.6038L717.4185,1247.0747L719.8756,1247.0729L723.20184,1247.0704L725.65894,1247.0686L725.65784,1245.5977Q725.6577,1245.3804,725.4904,1245.1967Q725.33984,1245.0297,725.1058,1244.9796Q724.8383,1244.913,723.19995,1244.5632L723.1943,1236.841L725.3839,1236.8394Q725.3857,1236.8394,725.3874,1236.8394Q726.1034,1236.8394,726.4037,1237.0392Q726.7549,1237.273,727.0226,1237.6238L733.39734,1246.3776Q733.79865,1247.0953,734.6998,1247.0953Q734.70074,1247.0953,734.70166,1247.0953L735.7881,1247.0946L737.64343,1247.0931L738.26196,1247.0928L738.2608,1245.5884Q738.26044,1245.0869,737.7422,1244.9703L737.77563,1244.9703Q737.6084,1244.9203,735.85315,1244.6375L730.5492,1237.3704Q730.0974,1236.7189,729.4453,1236.3516Q730.682,1236.0833,731.9852,1235.3635Q733.0879,1234.761,733.8728,1233.8077Q734.6577,1232.8544,735.05804,1231.7509Q735.4751,1230.5806,735.4741,1229.3604Q735.473,1227.7892,734.9539,1226.5193Q734.45154,1225.2994,733.3142,1224.3643Q732.19366,1223.4458,730.5051,1222.9957Q728.7395,1222.5306,726.47644,1222.5306 Z M791.5975,1222.5494L789.10693,1222.5513L786.1986,1222.5533L783.3905,1222.5554L783.3916,1224.0598Q783.39197,1224.5613,783.9436,1224.6779Q783.97705,1224.6779,784.2947,1224.7444Q784.5956,1224.811,785.1139,1224.911Q785.61536,1224.9941,786.20044,1225.0773L786.2114,1239.9368Q786.2122,1241.0621,786.2695,1241.5618L786.2695,1241.5618L772.0917,1223.0986Q771.7404,1222.7479,771.57324,1222.6644Q771.3733,1222.5647,770.92456,1222.5647Q770.9229,1222.5647,770.92126,1222.5647L766.7593,1222.5677L766.7604,1224.0387Q766.76074,1224.5902,767.26227,1224.6902Q767.56323,1224.7903,769.2182,1225.0898L769.2326,1244.6128L767.2773,1245.0154Q766.77594,1245.116,766.7763,1245.6342L766.7774,1247.1051L774.9175,1247.0991L774.9164,1245.6282Q774.916,1245.11,774.4312,1245.0101Q773.19415,1244.7603,772.141,1244.6106L772.1299,1229.6174Q772.12915,1228.6245,772.06323,1228.0413L772.0709,1228.0413L786.28314,1246.5056Q786.7512,1247.0898,787.45245,1247.0898Q787.453,1247.0898,787.4536,1247.0898L789.1251,1247.0886L789.1088,1225.0752L791.06415,1224.6726Q791.599,1224.5719,791.5986,1224.0537L791.5975,1222.5494 Z M715.67883,1222.6055L715.1439,1222.6058L713.97394,1222.6068L695.48737,1222.6204L695.49133,1228.0193L697.1294,1228.0181Q697.71436,1228.0177,697.81445,1227.6832Q697.9478,1227.2319,698.1304,1225.3931L703.9137,1225.3888L703.92786,1244.6108Q703.4432,1244.6948,702.8248,1244.829Q702.20654,1244.9631,702.03937,1244.9967Q701.45447,1245.0974,701.45483,1245.6825L701.45593,1247.1199L709.74646,1247.1138L709.74536,1245.6763Q709.745,1245.1582,709.41064,1245.0581Q709.3103,1245.0248,707.6888,1244.7251Q707.42175,1244.6586,707.2881,1244.6586Q707.28784,1244.6586,707.2876,1244.6586L707.2734,1225.4198L713.02325,1225.4155Q713.19165,1227.1036,713.3592,1227.6718Q713.4596,1228.0056,714.01013,1228.0056Q714.01074,1228.0056,714.01135,1228.0056L715.6828,1228.0044L715.67883,1222.6055 Z M674.4733,1222.636Q674.46674,1222.636,674.46014,1222.636L663.1275,1222.6443L663.12854,1224.0818Q663.12897,1224.6334,663.66394,1224.7333Q663.9983,1224.8501,665.5864,1225.133L665.6008,1244.6893L663.67896,1245.0585Q663.14417,1245.1592,663.14453,1245.7107L663.1456,1247.1482L674.4783,1247.1399Q679.8938,1247.1359,683.2009,1243.7737Q684.80426,1242.0844,685.6551,1239.9108Q686.5393,1237.637,686.53723,1234.879Q686.5332,1229.3632,683.18774,1225.9724Q679.94653,1222.636,674.4733,1222.636 Z M660.62024,1222.6462L643.0363,1222.6592L643.03735,1224.0967Q643.0378,1224.6482,643.5393,1224.7482Q643.8402,1224.8483,645.49524,1225.1478L645.50964,1244.7042L643.5543,1245.0734Q643.053,1245.174,643.05334,1245.7256L643.05444,1247.1631L660.63837,1247.15L660.63416,1241.467L658.9961,1241.4683Q658.3275,1241.4688,658.2444,1242.0204Q658.2445,1242.221,658.0456,1244.4777L648.86914,1244.4844L648.863,1236.0936L657.889,1236.0869L657.8871,1233.4961L648.8611,1233.5028L648.85504,1225.346L658.0315,1225.3392Q658.08215,1226.0411,658.1494,1226.693Q658.2168,1227.3448,658.2505,1227.6456Q658.2674,1227.9465,658.26746,1227.98Q658.3681,1228.5645,658.98553,1228.5645Q658.9861,1228.5645,658.9866,1228.5645L660.62463,1228.5632L660.62024,1222.6462 Z M640.8467,1222.6608L632.60626,1222.6669L632.6073,1224.1044Q632.60767,1224.6226,633.0089,1224.7225Q633.41016,1224.8225,635.0652,1225.1222L635.0796,1244.6617L633.0908,1245.0476Q632.62286,1245.1483,632.6233,1245.6998L632.6244,1247.1708L640.86475,1247.1647L640.86365,1245.6938Q640.8633,1245.1757,640.46204,1245.0757Q639.9104,1244.9424,638.37244,1244.6593L638.358,1225.1198L640.3301,1224.7505Q640.84814,1224.6499,640.8477,1224.0983L640.8467,1222.6608 Z M630.78436,1222.6682L615.07245,1222.6798L612.61536,1222.6816L612.61646,1224.1191Q612.6168,1224.6707,613.11835,1224.7706Q613.4193,1224.8707,615.0743,1225.1703L615.08875,1244.7267L613.13336,1245.0958Q612.63196,1245.1965,612.6324,1245.748L612.6335,1247.1855L620.9073,1247.1794L620.90625,1245.742Q620.9058,1245.207,620.3541,1245.0905Q619.95294,1245.0072,619.5016,1244.924Q619.05023,1244.8407,618.79944,1244.7908Q618.5654,1244.7576,618.44836,1244.7241L618.4424,1236.6342L627.75256,1236.6273L627.7506,1233.953L618.4404,1233.9598L618.4341,1225.3684L628.1454,1225.3612Q628.21277,1226.08,628.28015,1226.7318Q628.3474,1227.367,628.3978,1227.6677Q628.4315,1227.9685,628.4315,1228.002Q628.53217,1228.5865,629.1165,1228.5865Q629.1169,1228.5865,629.11725,1228.5865L630.7887,1228.5852L630.78436,1222.6682 Z M1030.7863,1222.3727L1028.3292,1222.3745L1025.0364,1222.377L1022.22833,1222.379L1022.2294,1223.8164Q1022.2298,1224.3513,1022.78143,1224.4679Q1023.3665,1224.5845,1025.0382,1224.834L1025.0474,1237.2698Q1025.0497,1240.3955,1023.3462,1242.3022Q1021.60925,1244.2424,1018.58386,1244.2446Q1018.58044,1244.2446,1018.577,1244.2446Q1015.5565,1244.2446,1013.8187,1242.3092Q1012.1125,1240.4552,1012.11005,1237.2292L1012.10095,1224.8435Q1013.6553,1224.6084,1014.3572,1224.4741Q1014.9087,1224.3567,1014.90826,1223.8219L1014.9072,1222.3844L1006.3158,1222.3907L1006.31683,1223.8282Q1006.31726,1224.3798,1006.8355,1224.4797Q1007.15314,1224.5797,1008.7747,1224.8794L1008.7839,1237.3152Q1008.787,1241.5273,1011.43005,1244.3502Q1014.0867,1247.1865,1018.5423,1247.1865Q1018.5475,1247.1865,1018.5527,1247.1865Q1023.04895,1247.1831,1025.7046,1244.3397Q1028.3098,1241.4962,1028.3068,1237.3008L1028.2976,1224.865L1030.2362,1224.4958Q1030.7877,1224.3784,1030.7874,1223.8435L1030.7863,1222.3727 Z M610.4257,1222.6832L602.1853,1222.6893L602.1864,1224.1268Q602.18677,1224.645,602.588,1224.745Q602.98926,1224.845,604.6442,1225.1447L604.6586,1244.6842L602.66986,1245.0702Q602.2019,1245.1708,602.20233,1245.7224L602.2034,1247.1932L610.44385,1247.1871L610.44275,1245.7163Q610.4424,1245.1981,610.04114,1245.0981Q609.48944,1244.9648,607.9515,1244.6818L607.937,1225.1422L609.9091,1224.773Q610.4272,1224.6724,610.42676,1224.1207L610.4257,1222.6832 Z M938.89496,1222.1229Q938.89154,1222.1229,938.88806,1222.1229L938.9549,1222.1564Q933.23846,1222.1606,929.84796,1225.6565Q926.424,1229.1858,926.4281,1234.7018Q926.4322,1240.2009,929.6607,1243.7253Q932.85236,1247.2125,938.12634,1247.2125Q938.132,1247.2125,938.13776,1247.2125Q943.78735,1247.2083,946.9771,1243.512L945.6723,1242.0754Q945.4718,1241.8752,945.1214,1241.8752Q945.121,1241.8752,945.12054,1241.8752Q944.88654,1241.8755,944.56915,1242.1431Q943.38324,1243.2472,941.5618,1243.9338Q940.42554,1244.3358,938.31946,1244.3374Q938.3153,1244.3374,938.31116,1244.3374Q934.57275,1244.3374,932.2501,1241.8179Q929.7911,1239.1621,929.7878,1234.6992Q929.78455,1230.3032,932.273,1227.6104Q934.7282,1225.0344,938.63947,1225.0315Q938.64386,1225.0315,938.64825,1225.0315Q940.9682,1225.0315,943.805,1225.9303Q943.80505,1225.9805,943.8386,1226.181Q943.85547,1226.3649,943.8892,1226.7325Q943.92285,1227.0836,943.9566,1227.468Q944.0579,1228.9054,944.09143,1229.0056Q944.19214,1229.6235,944.843,1229.6235Q944.84357,1229.6235,944.84406,1229.6235L946.4821,1229.6223L946.47925,1225.778L946.47784,1223.8724Q941.81866,1222.1229,938.89496,1222.1229 Z M600.4637,1222.6907L597.9732,1222.6925L595.0648,1222.6946L592.2567,1222.6967L592.2578,1224.201Q592.2582,1224.7025,592.8099,1224.8191Q592.8433,1224.8191,593.16095,1224.8856Q593.46185,1224.9523,593.9801,1225.0522Q594.48157,1225.1354,595.06665,1225.2185L595.07764,1240.078Q595.0785,1241.2032,595.1357,1241.703L595.1357,1241.703L580.9579,1223.2399Q580.6066,1222.8892,580.43945,1222.8057Q580.2395,1222.7059,579.7908,1222.7059Q579.7891,1222.7059,579.7875,1222.7059L575.6255,1222.709L575.6266,1224.1799Q575.627,1224.7314,576.12854,1224.8314Q576.42944,1224.9315,578.0844,1225.2311L578.0989,1244.754L576.14355,1245.1566Q575.64215,1245.2572,575.6426,1245.7754L575.6436,1247.2463L583.78375,1247.2402L583.78265,1245.7694Q583.7823,1245.2512,583.2975,1245.1514Q582.06036,1244.9015,581.00726,1244.7518L580.99615,1229.7587Q580.9954,1228.7633,580.92914,1228.1797L580.93494,1228.1797L595.14935,1246.6469Q595.61743,1247.2311,596.31866,1247.2311Q596.3192,1247.2311,596.3198,1247.2311L597.99133,1247.2297L597.97504,1225.2164L599.9304,1224.8138Q600.4652,1224.7131,600.46484,1224.195L600.4637,1222.6907 Z M528.5698,1222.7438Q528.56323,1222.7438,528.55664,1222.7438L517.224,1222.7522L517.22504,1224.1896Q517.22546,1224.7412,517.7604,1224.8411Q518.0948,1224.9579,519.6829,1225.2408L519.6974,1244.7971L517.7754,1245.1663Q517.2406,1245.267,517.241,1245.8186L517.24207,1247.256L528.5747,1247.2477Q533.99036,1247.2437,537.29736,1243.8816Q538.90076,1242.1921,539.7516,1240.0186Q540.6358,1237.7448,540.6337,1234.9868Q540.62964,1229.471,537.2842,1226.0803Q534.04297,1222.7438,528.5698,1222.7438 Z M514.71674,1222.754L497.13278,1222.767L497.13385,1224.2045Q497.13425,1224.7561,497.63577,1224.856Q497.9367,1224.956,499.5917,1225.2556L499.60614,1244.812L497.65082,1245.1812Q497.1494,1245.2819,497.14984,1245.8334L497.15088,1247.2709L514.73486,1247.2579L514.73065,1241.5748L513.09265,1241.576Q512.424,1241.5765,512.3408,1242.1282Q512.341,1242.3287,512.1421,1244.5854L502.96567,1244.5922L502.95947,1236.2014L511.98547,1236.1947L511.98352,1233.6039L502.95755,1233.6106L502.95154,1225.4537L512.1279,1225.447Q512.1786,1226.1489,512.246,1226.8008Q512.3133,1227.4526,512.3469,1227.7534Q512.3639,1228.0543,512.3639,1228.0878Q512.4646,1228.6722,513.08203,1228.6722Q513.0826,1228.6722,513.08307,1228.6722L514.7211,1228.671L514.71674,1222.754 Z M495.37775,1222.7683L494.84286,1222.7687L493.67282,1222.7695L475.18625,1222.7832L475.19025,1228.1821L476.8283,1228.1809Q477.4133,1228.1804,477.51337,1227.8461Q477.64673,1227.3947,477.82922,1225.5559L483.61255,1225.5516L483.62677,1244.7737Q483.1421,1244.8575,482.52374,1244.9918Q481.9054,1245.126,481.73828,1245.1595Q481.15332,1245.2603,481.15375,1245.8452L481.15482,1247.2827L489.44537,1247.2766L489.4443,1245.8391Q489.4439,1245.3209,489.10956,1245.221Q489.00925,1245.1875,487.3877,1244.888Q487.12067,1244.8213,486.98697,1244.8213Q486.98672,1244.8213,486.98648,1244.8213L486.97226,1225.5825L492.72217,1225.5784Q492.89056,1227.2664,493.0581,1227.8346Q493.15854,1228.1685,493.709,1228.1685Q493.70963,1228.1685,493.71024,1228.1685L495.3817,1228.1671L495.37775,1222.7683 Z M801.30505,1222.258Q801.29846,1222.258,801.2919,1222.258Q797.9154,1222.2606,795.8109,1224.3181Q793.8567,1226.2751,793.8587,1228.9829Q793.8609,1231.9414,795.68396,1233.5614Q796.6039,1234.3798,797.5737,1234.797Q798.2759,1235.0973,801.8872,1236.2312Q802.8234,1236.5146,803.72644,1237.049Q805.5825,1238.0839,805.584,1240.0562Q805.58545,1242.112,804.2826,1243.3165Q803.68134,1243.9187,802.71216,1244.237Q801.6259,1244.5889,800.17175,1244.5898Q800.16986,1244.5898,800.16797,1244.5898Q798.664,1244.5898,795.9923,1243.6235L795.89087,1242.1193Q795.78955,1240.732,795.72253,1240.4479Q795.6219,1239.8634,795.0378,1239.8634Q795.0373,1239.8634,795.0368,1239.8634L793.3653,1239.8646L793.3699,1246.0323L794.35626,1246.366Q795.86096,1246.7994,797.098,1247.0159Q798.8461,1247.3142,800.4449,1247.3142Q800.45135,1247.3142,800.4579,1247.3142Q804.319,1247.3114,806.5404,1245.0867Q808.6616,1242.9623,808.6592,1239.5859Q808.6563,1235.7247,804.9611,1234.0728L805.02795,1234.0728Q803.69037,1233.5221,800.7144,1232.5381Q799.66113,1232.1879,798.79156,1231.6704Q796.95215,1230.6521,796.9508,1228.8302Q796.9496,1227.1587,798.1022,1226.1049Q799.3048,1225.0007,801.52783,1224.9991Q801.531,1224.9991,801.53424,1224.9991Q803.2372,1224.9991,805.57336,1225.6481Q805.64087,1226.5171,805.70825,1227.2693Q805.7589,1228.0214,805.7926,1228.3557Q805.8096,1228.6732,805.8096,1228.69Q805.9102,1229.2744,806.5277,1229.2744Q806.52826,1229.2744,806.52875,1229.2744L808.1668,1229.2732L808.1626,1223.6237Q804.8249,1222.258,801.30505,1222.258 Z M446.53708,1222.8043L428.95312,1222.8174L428.95416,1224.2549Q428.9546,1224.8064,429.4561,1224.9064Q429.75705,1225.0065,431.41202,1225.306L431.42648,1244.8624L429.47113,1245.2316Q428.96976,1245.3322,428.97015,1245.8838L428.97122,1247.3213L446.55518,1247.3082L446.551,1241.6252L444.91293,1241.6265Q444.24435,1241.627,444.1612,1242.1786Q444.16132,1242.3792,443.9624,1244.6359L434.78598,1244.6426L434.7798,1236.2517L443.8058,1236.2451L443.80386,1233.6543L434.7779,1233.661L434.77185,1225.5042L443.94827,1225.4973Q443.99893,1226.1993,444.06628,1226.8512Q444.1336,1227.503,444.16727,1227.8038Q444.1842,1228.1047,444.18423,1228.1382Q444.28488,1228.7227,444.90265,1228.7227Q444.903,1228.7227,444.9034,1228.7227L446.54144,1228.7214L446.53708,1222.8043 Z M426.76346,1222.819L418.52307,1222.8251L418.52414,1224.2626Q418.5245,1224.7808,418.92575,1224.8807Q419.32697,1224.9807,420.98196,1225.2803L420.9964,1244.82L419.00763,1245.2058Q418.53967,1245.3065,418.5401,1245.858L418.54117,1247.329L426.7816,1247.3229L426.7805,1245.8519Q426.78012,1245.3339,426.37888,1245.2339Q425.82718,1245.1005,424.2892,1244.8175L424.27478,1225.278L426.24686,1224.9087Q426.76495,1224.808,426.76453,1224.2565L426.76346,1222.819 Z M404.66632,1222.7684Q404.65805,1222.7684,404.64975,1222.7684L398.0474,1222.7733L395.59033,1222.7751L395.59143,1224.2795Q395.5918,1224.7809,396.09332,1224.8976Q396.39426,1224.9642,398.0827,1225.2972L398.0971,1244.8035L396.10834,1245.2228Q395.607,1245.3401,395.60736,1245.8416L395.60846,1247.3125L398.06552,1247.3107L401.39175,1247.3082L403.84885,1247.3064L403.84775,1245.8354Q403.8476,1245.6182,403.6803,1245.4344Q403.52975,1245.2675,403.29572,1245.2174Q403.02823,1245.1508,401.38992,1244.801L401.38422,1237.0787L403.57385,1237.0771Q403.5756,1237.0771,403.57733,1237.0771Q404.29333,1237.0771,404.5936,1237.277Q404.9448,1237.5107,405.21246,1237.8616L411.58728,1246.6154Q411.9886,1247.3331,412.88974,1247.3331Q412.89066,1247.3331,412.89157,1247.3331L413.97803,1247.3324L415.83337,1247.3309L416.45184,1247.3306L416.4507,1245.8262Q416.45035,1245.3247,415.9321,1245.2081L415.96555,1245.2081Q415.79834,1245.1581,414.0431,1244.8752L408.73914,1237.6082Q408.28732,1236.9567,407.6352,1236.5894Q408.8719,1236.321,410.1751,1235.6013Q411.27783,1234.9988,412.06274,1234.0455Q412.84763,1233.0922,413.24796,1231.9886Q413.66498,1230.8184,413.66406,1229.5981Q413.6629,1228.027,413.1438,1226.7571Q412.64148,1225.5372,411.50415,1224.602Q410.3836,1223.6836,408.69507,1223.2335Q406.9294,1222.7684,404.66632,1222.7684 Z M473.8825,1222.7842L471.392,1222.786L468.4836,1222.7882L465.67554,1222.7903L465.67664,1224.2946Q465.677,1224.796,466.2287,1224.9126Q466.26212,1224.9126,466.57974,1224.9792Q466.88068,1225.0459,467.3989,1225.1458Q467.9004,1225.229,468.48547,1225.3121L468.49646,1240.1715Q468.4973,1241.2968,468.5545,1241.7965L468.5545,1241.7965L454.3767,1223.3335Q454.02545,1222.9827,453.85825,1222.8993Q453.65833,1222.7994,453.2096,1222.7994Q453.20795,1222.7994,453.2063,1222.7994L449.0443,1222.8025L449.0454,1224.2734Q449.0458,1224.825,449.5473,1224.9249Q449.84827,1225.025,451.50323,1225.3246L451.51767,1244.8475L449.56232,1245.2501Q449.06097,1245.3508,449.06134,1245.8689L449.06244,1247.3398L457.20255,1247.3339L457.20145,1245.8629Q457.20108,1245.3447,456.71625,1245.2449Q455.4792,1244.995,454.42603,1244.8453L454.41498,1229.8522Q454.4142,1228.8553,454.34772,1228.2714L454.35226,1228.2714L468.56818,1246.7404Q469.03622,1247.3246,469.7375,1247.3246Q469.73807,1247.3246,469.73865,1247.3246L471.41013,1247.3234L471.39386,1225.3099L473.34918,1224.9073Q473.884,1224.8066,473.8836,1224.2885L473.8825,1222.7842 Z M573.88715,1222.7103L571.43005,1222.712L568.13727,1222.7145L565.32916,1222.7166L565.33026,1224.154Q565.3306,1224.689,565.8823,1224.8055Q566.4674,1224.9221,568.1391,1225.1716L568.14825,1237.6074Q568.1506,1240.733,566.4471,1242.6398Q564.7102,1244.5801,561.6848,1244.5823Q561.6814,1244.5823,561.678,1244.5823Q558.6575,1244.5823,556.9197,1242.6469Q555.2134,1240.7927,555.211,1237.5668L555.20184,1225.1812Q556.7561,1224.946,557.45807,1224.8118Q558.0096,1224.6943,558.00916,1224.1594L558.0081,1222.722L549.4167,1222.7284L549.4177,1224.1658Q549.41815,1224.7174,549.9364,1224.8173Q550.254,1224.9174,551.8756,1225.217L551.88477,1237.6528Q551.88794,1241.865,554.53094,1244.6879Q557.18756,1247.524,561.6432,1247.524Q561.6484,1247.524,561.65356,1247.524Q566.1498,1247.5208,568.80536,1244.6772Q571.41077,1241.8339,571.4077,1237.6384L571.3985,1225.2026L573.33716,1224.8335Q573.8887,1224.7161,573.88824,1224.1812L573.88715,1222.7103 Z M381.52737,1222.5682Q381.52185,1222.5682,381.5163,1222.5682Q378.85864,1222.5702,376.58612,1223.5079Q374.36374,1224.4288,372.76035,1226.1016Q371.15695,1227.7742,370.2895,1230.0815Q369.40533,1232.4055,369.40735,1235.1467Q369.40936,1237.888,370.29697,1240.2107Q371.16785,1242.5167,372.7737,1244.187Q374.31265,1245.8071,376.60327,1246.7415Q378.92288,1247.6907,381.52484,1247.6907Q381.52985,1247.6907,381.53485,1247.6907Q384.14236,1247.6887,386.46503,1246.7343Q388.6874,1245.8132,390.2574,1244.1741Q391.86078,1242.5013,392.72824,1240.1941Q393.57904,1237.9537,393.57697,1235.1624L393.61035,1235.0955Q393.60828,1232.2706,392.75415,1230.0315Q391.8833,1227.7255,390.27744,1226.0552Q388.73846,1224.4349,386.44785,1223.5006Q384.17868,1222.5682,381.52737,1222.5682 Z"/>
</g>
</g>
</g>
<g id="layer3" opacity="0.0">
<g style="fill:rgb(255,255,255); fill-opacity:1.0; stroke-linejoin: miter">
</g>
<g>
<g style="fill:rgb(0,0,0); fill-opacity:1.0; stroke-linejoin: miter">
<path d="M996.71326,1225.1852Q999.3058,1225.1852,1000.586,1226.1774Q1001.8342,1227.1376,1001.8342,1229.1859Q1001.8342,1229.906,1001.49817,1230.8342Q1000.522,1233.1866,996.58527,1233.1866L992.39246,1233.1866L992.39246,1225.1852 Z M385.75183,1225.1852Q388.50433,1225.1852,389.8486,1226.2413Q391.22485,1227.3296,391.22485,1229.3779Q391.22485,1230.4662,390.87277,1231.2823Q390.52072,1232.0825,389.78458,1232.7225Q388.98444,1233.4108,388.02426,1233.7147Q387.00006,1234.0348,385.5598,1234.0348L382.58325,1234.0348L382.58325,1225.1852 Z M693.85706,1225.1852Q696.60956,1225.1852,697.9538,1226.2413Q699.3301,1227.3296,699.3301,1229.3779Q699.3301,1230.4662,698.978,1231.2823Q698.626,1232.0825,697.8898,1232.7225Q697.08966,1233.4108,696.12946,1233.7147Q695.1053,1234.0348,693.66504,1234.0348L690.6885,1234.0348L690.6885,1225.1852 Z M827.7539,1225.1852Q830.5064,1225.1852,831.8507,1226.2413Q833.2269,1227.3296,833.2269,1229.3779Q833.2269,1230.4662,832.8749,1231.2823Q832.5228,1232.0825,831.7866,1232.7225Q830.9865,1233.4108,830.02637,1233.7147Q829.00214,1234.0348,827.5619,1234.0348L824.5853,1234.0348L824.5853,1225.1852 Z M783.29767,1225.1852Q786.11414,1225.1852,787.45844,1226.4335Q788.8347,1227.7136,788.8347,1229.906L788.8667,1229.9381Q788.8667,1232.1785,787.3944,1233.5067Q785.9381,1234.819,783.29767,1234.819L779.953,1234.819L779.953,1225.1852 Z M718.6776,1225.6813Q718.9977,1226.9615,719.3978,1227.8737L722.8704,1236.9154L714.50085,1236.9154L718.02155,1227.9056Q718.2776,1227.1855,718.6776,1225.6813 Z M805.34973,1225.6813Q805.6698,1226.9615,806.0699,1227.8737L809.54254,1236.9154L801.173,1236.9154L804.6936,1227.9056Q804.9497,1227.1855,805.34973,1225.6813 Z M504.38187,1225.2491Q508.2386,1225.2491,510.43097,1227.6816Q511.43918,1228.7859,512.0793,1230.5621Q512.6714,1232.2264,512.6714,1234.4349Q512.6714,1238.7557,510.43097,1241.1881Q508.20657,1243.6046,504.38187,1243.6046L499.1009,1243.6046L499.1009,1225.2491 Z M644.0718,1225.2491Q647.9285,1225.2491,650.121,1227.6816Q651.12915,1228.7859,651.7692,1230.5621Q652.3613,1232.2264,652.3613,1234.4349Q652.3613,1238.7557,650.121,1241.1881Q647.8965,1243.6046,644.0718,1243.6046L638.79083,1243.6046L638.79083,1225.2491 Z M997.46545,1235.4751Q1000.12195,1235.4751,1001.3702,1236.5312Q1002.6184,1237.5875,1002.6184,1239.4119Q1002.6184,1240.372,1002.3463,1241.1241Q1001.3541,1243.6686,997.46545,1243.6686L997.49744,1243.6366L992.39246,1243.6366L992.39246,1235.4751 Z M363.5397,1225.2491Q365.49207,1225.2491,367.01236,1225.8733Q368.54865,1226.4974,369.63684,1227.6816Q370.62903,1228.7699,371.26913,1230.5942Q371.86127,1232.3065,371.86127,1234.4989L371.89325,1234.4989Q371.89325,1236.6593,371.30115,1238.3716Q370.70905,1240.084,369.63684,1241.2522Q368.53262,1242.4524,367.01236,1243.0765Q365.41205,1243.7327,363.57172,1243.7327Q361.73138,1243.7327,360.13107,1243.0765Q358.61078,1242.4524,357.5066,1241.2522Q356.38638,1240.0359,355.81027,1238.3716Q355.21817,1236.6593,355.21817,1234.4989Q355.21817,1232.3065,355.81027,1230.5942Q356.40237,1228.8818,357.5066,1227.6816Q358.5948,1226.4974,360.13107,1225.8733Q361.65137,1225.2491,363.5397,1225.2491 Z M377.07822,1222.6407L377.07822,1224.0809Q377.07822,1224.561,377.55832,1224.6731Q377.84637,1224.737,379.46268,1225.0571L379.46268,1243.7327L377.55832,1244.1327Q377.07822,1244.2448,377.07822,1244.7249L377.07822,1246.133L384.96768,1246.133L384.96768,1244.7249Q384.96768,1244.5167,384.80765,1244.3407Q384.66364,1244.1807,384.43958,1244.1327Q384.18353,1244.0687,382.61526,1243.7327L382.61526,1236.3392L384.71164,1236.3392Q385.39978,1236.3392,385.6878,1236.5312Q386.0239,1236.7554,386.27994,1237.0914L392.37708,1245.4769Q392.76114,1246.165,393.6253,1246.165L397.03394,1246.165L397.03394,1244.7249Q397.03394,1244.2448,396.53784,1244.1327L396.56985,1244.1327Q396.40982,1244.0847,394.7295,1243.8126L389.65656,1236.8513Q389.2245,1236.2272,388.60037,1235.8751Q389.78458,1235.6191,391.0328,1234.931Q392.08902,1234.3549,392.84116,1233.4427Q393.5933,1232.5305,393.97736,1231.4744Q394.37744,1230.3541,394.37744,1229.1859Q394.37744,1227.6816,393.88135,1226.4655Q393.40125,1225.2972,392.31305,1224.401Q391.24084,1223.5209,389.62454,1223.0887Q387.92822,1222.6407,385.75183,1222.6407 Z M399.0343,1222.7047L399.0343,1224.0809Q399.0343,1224.577,399.41837,1224.6731Q399.80243,1224.769,401.38675,1225.0571L401.38675,1243.7646L399.4824,1244.1327Q399.0343,1244.2288,399.0343,1244.7568L399.0343,1246.165L406.92377,1246.165L406.92377,1244.7568Q406.92377,1244.2607,406.5397,1244.1647Q406.0116,1244.0366,404.5393,1243.7646L404.5393,1225.0571L406.42767,1224.7051Q406.92377,1224.6091,406.92377,1224.0809L406.92377,1222.7047 Z M409.02014,1222.7047L409.02014,1224.0809Q409.02014,1224.6091,409.50024,1224.7051Q409.7883,1224.8011,411.3726,1225.0891L411.3726,1243.8126L409.50024,1244.1647Q409.02014,1244.2607,409.02014,1244.7888L409.02014,1246.165L425.8553,1246.165L425.8553,1240.7241L424.287,1240.7241Q423.64688,1240.7241,423.56686,1241.2522Q423.56686,1241.4442,423.37482,1243.6046L414.58917,1243.6046L414.58917,1235.5712L423.2308,1235.5712L423.2308,1233.0907L414.58917,1233.0907L414.58917,1225.2812L423.37482,1225.2812Q423.42282,1225.9534,423.48685,1226.5774Q423.55084,1227.2015,423.58286,1227.4896Q423.59888,1227.7777,423.59888,1227.8097Q423.6949,1228.3698,424.287,1228.3698L425.8553,1228.3698L425.8553,1222.7047 Z M453.28436,1222.7047L453.28436,1227.8737L454.85266,1227.8737Q455.41278,1227.8737,455.5088,1227.5536Q455.6368,1227.1216,455.81284,1225.3612L461.34985,1225.3612L461.34985,1243.7646Q460.8858,1243.8446,460.29367,1243.9727Q459.70157,1244.1007,459.54153,1244.1327Q458.98145,1244.2288,458.98145,1244.7888L458.98145,1246.165L466.9189,1246.165L466.9189,1244.7888Q466.9189,1244.2927,466.59885,1244.1967Q466.50284,1244.1647,464.95053,1243.8767Q464.6945,1243.8126,464.56647,1243.8126L464.56647,1225.3932L470.0715,1225.3932Q470.2315,1227.0095,470.39154,1227.5536Q470.48758,1227.8737,471.0157,1227.8737L472.61597,1227.8737L472.61597,1222.7047 Z M474.29626,1222.7047L474.29626,1224.0809Q474.29626,1224.6091,474.77637,1224.7051Q475.06442,1224.8011,476.6487,1225.0891L476.6487,1243.8126L474.77637,1244.1647Q474.29626,1244.2607,474.29626,1244.7888L474.29626,1246.165L491.1314,1246.165L491.1314,1240.7241L489.5631,1240.7241Q488.92297,1240.7241,488.84296,1241.2522Q488.84296,1241.4442,488.65094,1243.6046L479.8653,1243.6046L479.8653,1235.5712L488.5069,1235.5712L488.5069,1233.0907L479.8653,1233.0907L479.8653,1225.2812L488.65094,1225.2812Q488.69894,1225.9534,488.76297,1226.5774Q488.82697,1227.2015,488.85898,1227.4896Q488.875,1227.7777,488.875,1227.8097Q488.971,1228.3698,489.5631,1228.3698L491.1314,1228.3698L491.1314,1222.7047 Z M493.53186,1222.7047L493.53186,1224.0809Q493.53186,1224.6091,494.04395,1224.7051Q494.364,1224.8171,495.88428,1225.0891L495.88428,1243.8126L494.04395,1244.1647Q493.53186,1244.2607,493.53186,1244.7888L493.53186,1246.165L504.38187,1246.165Q509.56683,1246.165,512.7354,1242.9485Q514.2717,1241.3322,515.0878,1239.2518Q515.93604,1237.0754,515.93604,1234.4349Q515.93604,1229.1539,512.7354,1225.9053Q509.63086,1222.7047,504.38187,1222.7047 Z M574.87494,1222.7047L574.87494,1224.0809Q574.87494,1224.577,575.25903,1224.6731Q575.64307,1224.769,577.2274,1225.0571L577.2274,1243.7646L575.32306,1244.1327Q574.87494,1244.2288,574.87494,1244.7568L574.87494,1246.165L582.7644,1246.165L582.7644,1244.7568Q582.7644,1244.2607,582.3804,1244.1647Q581.85223,1244.0366,580.38,1243.7646L580.38,1225.0571L582.2683,1224.7051Q582.7644,1224.6091,582.7644,1224.0809L582.7644,1222.7047 Z M584.86084,1222.7047L584.86084,1224.0809Q584.86084,1224.6091,585.3409,1224.7051Q585.62897,1224.8011,587.21326,1225.0891L587.21326,1243.8126L585.3409,1244.1647Q584.86084,1244.2607,584.86084,1244.7888L584.86084,1246.165L592.7823,1246.165L592.7823,1244.7888Q592.7823,1244.2767,592.25415,1244.1647Q591.8701,1244.0847,591.43805,1244.0046Q591.006,1243.9247,590.76587,1243.8767Q590.5419,1243.8446,590.4298,1243.8126L590.4298,1236.0673L599.3435,1236.0673L599.3435,1233.5067L590.4298,1233.5067L590.4298,1225.2812L599.72754,1225.2812Q599.79156,1225.9694,599.8556,1226.5934Q599.9196,1227.2015,599.9676,1227.4896Q599.99963,1227.7777,599.99963,1227.8097Q600.09564,1228.3698,600.65576,1228.3698L602.25604,1228.3698L602.25604,1222.7047 Z M604.00037,1222.7047L604.00037,1224.0809Q604.00037,1224.577,604.3844,1224.6731Q604.7685,1224.769,606.3528,1225.0571L606.3528,1243.7646L604.4484,1244.1327Q604.00037,1244.2288,604.00037,1244.7568L604.00037,1246.165L611.88983,1246.165L611.88983,1244.7568Q611.88983,1244.2607,611.50574,1244.1647Q610.97766,1244.0366,609.5054,1243.7646L609.5054,1225.0571L611.39374,1224.7051Q611.88983,1224.6091,611.88983,1224.0809L611.88983,1222.7047 Z M613.9862,1222.7047L613.9862,1224.0809Q613.9862,1224.6091,614.4663,1224.7051Q614.7544,1224.8011,616.3386,1225.0891L616.3386,1243.8126L614.4663,1244.1647Q613.9862,1244.2607,613.9862,1244.7888L613.9862,1246.165L630.82135,1246.165L630.82135,1240.7241L629.25305,1240.7241Q628.6129,1240.7241,628.53296,1241.2522Q628.53296,1241.4442,628.3409,1243.6046L619.55524,1243.6046L619.55524,1235.5712L628.1969,1235.5712L628.1969,1233.0907L619.55524,1233.0907L619.55524,1225.2812L628.3409,1225.2812Q628.3889,1225.9534,628.4529,1226.5774Q628.5169,1227.2015,628.54895,1227.4896Q628.56494,1227.7777,628.56494,1227.8097Q628.66095,1228.3698,629.25305,1228.3698L630.82135,1228.3698L630.82135,1222.7047 Z M633.2218,1222.7047L633.2218,1224.0809Q633.2218,1224.6091,633.7339,1224.7051Q634.05396,1224.8171,635.5742,1225.0891L635.5742,1243.8126L633.7339,1244.1647Q633.2218,1244.2607,633.2218,1244.7888L633.2218,1246.165L644.0718,1246.165Q649.2568,1246.165,652.42535,1242.9485Q653.9617,1241.3322,654.77783,1239.2518Q655.626,1237.0754,655.626,1234.4349Q655.626,1229.1539,652.42535,1225.9053Q649.3208,1222.7047,644.0718,1222.7047 Z M664.20355,1222.7047L664.20355,1227.8737L665.77185,1227.8737Q666.3319,1227.8737,666.428,1227.5536Q666.55597,1227.1216,666.73206,1225.3612L672.26904,1225.3612L672.26904,1243.7646Q671.80493,1243.8446,671.2128,1243.9727Q670.6207,1244.1007,670.4607,1244.1327Q669.90063,1244.2288,669.90063,1244.7888L669.90063,1246.165L677.8381,1246.165L677.8381,1244.7888Q677.8381,1244.2927,677.518,1244.1967Q677.422,1244.1647,675.86975,1243.8767Q675.61365,1243.8126,675.4856,1243.8126L675.4856,1225.3932L680.99066,1225.3932Q681.1507,1227.0095,681.3107,1227.5536Q681.40674,1227.8737,681.9348,1227.8737L683.53516,1227.8737L683.53516,1222.7047 Z M685.1835,1222.6407L685.1835,1224.0809Q685.1835,1224.561,685.6635,1224.6731Q685.95154,1224.737,687.5679,1225.0571L687.5679,1243.7327L685.6635,1244.1327Q685.1835,1244.2448,685.1835,1244.7249L685.1835,1246.133L693.0729,1246.133L693.0729,1244.7249Q693.0729,1244.5167,692.91284,1244.3407Q692.76886,1244.1807,692.5448,1244.1327Q692.28876,1244.0687,690.72046,1243.7327L690.72046,1236.3392L692.8169,1236.3392Q693.505,1236.3392,693.793,1236.5312Q694.1291,1236.7554,694.38513,1237.0914L700.4823,1245.4769Q700.86633,1246.165,701.73047,1246.165L705.13916,1246.165L705.13916,1244.7249Q705.13916,1244.2448,704.64307,1244.1327L704.67505,1244.1327Q704.515,1244.0847,702.8347,1243.8126L697.7618,1236.8513Q697.3297,1236.2272,696.70557,1235.8751Q697.8898,1235.6191,699.13806,1234.931Q700.1942,1234.3549,700.94635,1233.4427Q701.6985,1232.5305,702.0826,1231.4744Q702.48267,1230.3541,702.48267,1229.1859Q702.48267,1227.6816,701.9866,1226.4655Q701.5065,1225.2972,700.4183,1224.401Q699.34607,1223.5209,697.72974,1223.0887Q696.03345,1222.6407,693.85706,1222.6407 Z M717.0934,1222.7047L708.5798,1243.9407L707.2676,1244.3247Q706.83545,1244.4368,706.83545,1244.8528L706.83545,1246.165L713.5567,1246.165L713.5567,1244.8528Q713.5567,1244.4208,713.12463,1244.3247L711.7804,1243.9407L713.6207,1239.2197L723.7506,1239.2197L725.59094,1243.9407L724.2467,1244.3247Q723.7826,1244.4208,723.7826,1244.8528L723.7826,1246.165L730.5359,1246.165L730.5359,1244.8528Q730.5359,1244.4368,730.10376,1244.3247L728.7915,1243.9407L720.30994,1222.7047 Z M774.448,1222.7047L774.448,1224.0809Q774.448,1224.6091,774.9281,1224.7051Q775.2162,1224.8011,776.8004,1225.0891L776.8004,1243.8126L774.9281,1244.1647Q774.448,1244.2607,774.448,1244.7888L774.448,1246.165L782.3055,1246.165L782.3055,1244.7888Q782.3055,1244.2607,781.84143,1244.1647Q780.3211,1243.8927,779.953,1243.7646L779.953,1237.3794L783.29767,1237.3794Q787.3944,1237.3794,789.7789,1235.2831Q792.0033,1233.3467,792.0033,1229.9701Q792.0033,1224.737,787.15436,1223.1528L787.15436,1223.1848Q785.47406,1222.7047,783.29767,1222.7047 Z M803.7655,1222.7047L795.25183,1243.9407L793.93964,1244.3247Q793.50757,1244.4368,793.50757,1244.8528L793.50757,1246.165L800.22876,1246.165L800.22876,1244.8528Q800.22876,1244.4208,799.79675,1244.3247L798.4525,1243.9407L800.29285,1239.2197L810.4227,1239.2197L812.26306,1243.9407L810.9188,1244.3247Q810.4547,1244.4208,810.4547,1244.8528L810.4547,1246.165L817.20795,1246.165L817.20795,1244.8528Q817.20795,1244.4368,816.7759,1244.3247L815.4636,1243.9407L806.98206,1222.7047 Z M819.0803,1222.6407L819.0803,1224.0809Q819.0803,1224.561,819.5604,1224.6731Q819.84845,1224.737,821.4647,1225.0571L821.4647,1243.7327L819.5604,1244.1327Q819.0803,1244.2448,819.0803,1244.7249L819.0803,1246.133L826.9697,1246.133L826.9697,1244.7249Q826.9697,1244.5167,826.8097,1244.3407Q826.6657,1244.1807,826.44165,1244.1327Q826.1856,1244.0687,824.6173,1243.7327L824.6173,1236.3392L826.71375,1236.3392Q827.40186,1236.3392,827.68994,1236.5312Q828.026,1236.7554,828.282,1237.0914L834.37915,1245.4769Q834.7632,1246.165,835.6274,1246.165L839.036,1246.165L839.036,1244.7249Q839.036,1244.2448,838.5399,1244.1327L838.5719,1244.1327Q838.41187,1244.0847,836.73157,1243.8126L831.6586,1236.8513Q831.22656,1236.2272,830.6024,1235.8751Q831.7866,1235.6191,833.0349,1234.931Q834.09106,1234.3549,834.84326,1233.4427Q835.59534,1232.5305,835.97943,1231.4744Q836.3795,1230.3541,836.3795,1229.1859Q836.3795,1227.6816,835.8834,1226.4655Q835.4033,1225.2972,834.3151,1224.401Q833.2429,1223.5209,831.6266,1223.0887Q829.9303,1222.6407,827.7539,1222.6407 Z M841.0364,1222.7047L841.0364,1224.0809Q841.0364,1224.6091,841.5165,1224.7051Q841.80457,1224.8011,843.3888,1225.0891L843.3888,1243.8126L841.5165,1244.1647Q841.0364,1244.2607,841.0364,1244.7888L841.0364,1246.165L857.87146,1246.165L857.87146,1240.7241L856.3032,1240.7241Q855.6631,1240.7241,855.58307,1241.2522Q855.58307,1241.4442,855.39105,1243.6046L846.6054,1243.6046L846.6054,1235.5712L855.247,1235.5712L855.247,1233.0907L846.6054,1233.0907L846.6054,1225.2812L855.39105,1225.2812Q855.4391,1225.9534,855.50305,1226.5774Q855.5671,1227.2015,855.5991,1227.4896Q855.6151,1227.7777,855.6151,1227.8097Q855.71106,1228.3698,856.3032,1228.3698L857.87146,1228.3698L857.87146,1222.7047 Z M936.4781,1222.7047L936.4781,1224.0809Q936.4781,1224.577,936.8622,1224.6731Q937.2462,1224.769,938.83057,1225.0571L938.83057,1243.7646L936.9582,1244.1327Q936.4781,1244.2288,936.4781,1244.7568L936.4781,1246.165L944.36755,1246.165L944.36755,1244.7568Q944.36755,1244.2448,942.01514,1243.7646L942.01514,1235.4751L954.6575,1235.4751L954.6575,1243.7646L952.8331,1244.1327Q952.30505,1244.2448,952.30505,1244.7568L952.30505,1246.165L960.2265,1246.165L960.2265,1244.7568Q960.2265,1244.2607,959.84247,1244.1647Q959.2183,1244.0046,957.8741,1243.7646L957.8741,1225.0571L959.77844,1224.7051Q960.25854,1224.6091,960.25854,1224.0809L960.25854,1222.7047L952.33704,1222.7047L952.33704,1224.0809Q952.33704,1224.577,952.7211,1224.6731Q953.10516,1224.769,954.68945,1225.0571L954.68945,1233.1547L942.0471,1233.1547L942.0471,1225.0571Q943.67944,1224.769,944.0475,1224.6731Q944.36755,1224.577,944.36755,1224.0809L944.36755,1222.7047 Z M986.85547,1222.6407L986.85547,1224.0809Q986.85547,1224.577,987.3356,1224.6731Q987.6236,1224.769,989.2079,1225.0571L989.2079,1243.7327L987.3356,1244.1327Q986.85547,1244.2288,986.85547,1244.7249L986.85547,1246.165L997.49744,1246.165Q1001.38617,1246.165,1003.59454,1244.2927Q1005.75494,1242.5164,1005.75494,1239.4758Q1005.75494,1235.123,1000.586,1234.0989Q1002.79443,1233.3947,1003.9306,1231.9705Q1004.3947,1231.3943,1004.7148,1230.4982Q1004.9708,1229.7941,1004.9708,1228.5298Q1004.9708,1227.3456,1004.5067,1226.2094Q1002.97046,1222.6407,996.71326,1222.6407 Z M428.25574,1222.7047L428.25574,1224.113Q428.25574,1224.6411,428.7358,1224.737Q429.02386,1224.8331,430.60815,1225.1212L430.60815,1243.8126L428.7358,1244.1967Q428.25574,1244.2927,428.25574,1244.7888L428.25574,1246.197L436.04916,1246.197L436.04916,1244.7888Q436.04916,1244.2927,435.58508,1244.1967Q434.40088,1243.9567,433.39267,1243.8126L433.39267,1229.458Q433.39267,1228.5034,433.32944,1227.9443L433.33377,1227.9443L446.9312,1245.637Q447.37927,1246.197,448.0514,1246.197L449.6517,1246.197L449.6517,1225.1212L451.52405,1224.737Q452.03613,1224.6411,452.03613,1224.145L452.03613,1222.7047L444.17868,1222.7047L444.17868,1224.145Q444.17868,1224.6251,444.7068,1224.737Q444.73877,1224.737,445.04285,1224.8011Q445.3309,1224.8651,445.827,1224.9612Q446.30707,1225.0411,446.8672,1225.1212L446.8672,1239.3478Q446.8672,1240.4252,446.92163,1240.9037L446.92163,1240.9037L433.36066,1223.2168Q433.0246,1222.8807,432.8646,1222.8008Q432.67255,1222.7047,432.24048,1222.7047 Z M549.4462,1222.7047L549.4462,1224.113Q549.4462,1224.6411,549.92633,1224.737Q550.21436,1224.8331,551.7987,1225.1212L551.7987,1243.8126L549.92633,1244.1967Q549.4462,1244.2927,549.4462,1244.7888L549.4462,1246.197L557.2397,1246.197L557.2397,1244.7888Q557.2397,1244.2927,556.7756,1244.1967Q555.5914,1243.9567,554.5832,1243.8126L554.5832,1229.458Q554.5832,1228.505,554.52014,1227.9462L554.5257,1227.9462L568.1217,1245.637Q568.56976,1246.197,569.24194,1246.197L570.8422,1246.197L570.8422,1225.1212L572.71454,1224.737Q573.2267,1224.6411,573.2267,1224.145L573.2267,1222.7047L565.3692,1222.7047L565.3692,1224.145Q565.3692,1224.6251,565.8973,1224.737Q565.9293,1224.737,566.23334,1224.8011Q566.5214,1224.8651,567.0175,1224.9612Q567.49756,1225.0411,568.0577,1225.1212L568.0577,1239.3478Q568.0577,1240.4252,568.1121,1240.9037L568.1121,1240.9037L554.55115,1223.2168Q554.2151,1222.8807,554.05505,1222.8008Q553.86304,1222.7047,553.43097,1222.7047 Z M732.4402,1222.7047L732.4402,1224.113Q732.4402,1224.6411,732.9203,1224.737Q733.2084,1224.8331,734.79266,1225.1212L734.79266,1243.8126L732.9203,1244.1967Q732.4402,1244.2927,732.4402,1244.7888L732.4402,1246.197L740.23364,1246.197L740.23364,1244.7888Q740.23364,1244.2927,739.76953,1244.1967Q738.5853,1243.9567,737.57715,1243.8126L737.57715,1229.458Q737.57715,1228.5074,737.51447,1227.949L737.52185,1227.949L751.1157,1245.637Q751.5637,1246.197,752.2359,1246.197L753.8362,1246.197L753.8362,1225.1212L755.7085,1224.737Q756.22064,1224.6411,756.22064,1224.145L756.22064,1222.7047L748.36316,1222.7047L748.36316,1224.145Q748.36316,1224.6251,748.89124,1224.737Q748.9233,1224.737,749.2273,1224.8011Q749.5154,1224.8651,750.0115,1224.9612Q750.4916,1225.0411,751.05164,1225.1212L751.05164,1239.3478Q751.05164,1240.4252,751.10614,1240.9037L751.10614,1240.9037L737.54517,1223.2168Q737.2091,1222.8807,737.0491,1222.8008Q736.85706,1222.7047,736.4249,1222.7047 Z M860.272,1222.7047L860.272,1224.113Q860.272,1224.6411,860.7521,1224.737Q861.0401,1224.8331,862.6244,1225.1212L862.6244,1243.8126L860.7521,1244.1967Q860.272,1244.2927,860.272,1244.7888L860.272,1246.197L868.06537,1246.197L868.06537,1244.7888Q868.06537,1244.2927,867.6013,1244.1967Q866.4171,1243.9567,865.4089,1243.8126L865.4089,1229.458Q865.4089,1228.509,865.3464,1227.9509L865.35504,1227.9509L878.94745,1245.637Q879.3955,1246.197,880.0676,1246.197L881.6679,1246.197L881.6679,1225.1212L883.5403,1224.737Q884.05237,1224.6411,884.05237,1224.145L884.05237,1222.7047L876.1949,1222.7047L876.1949,1224.145Q876.1949,1224.6251,876.723,1224.737Q876.755,1224.737,877.0591,1224.8011Q877.3471,1224.8651,877.8432,1224.9612Q878.3233,1225.0411,878.8834,1225.1212L878.8834,1239.3478Q878.8834,1240.4252,878.93787,1240.9037L878.93787,1240.9037L865.3769,1223.2168Q865.04083,1222.8807,864.8808,1222.8008Q864.6888,1222.7047,864.2567,1222.7047 Z M906.04047,1222.7047L906.04047,1224.113Q906.04047,1224.6411,906.5045,1224.737Q906.8566,1224.8011,908.13684,1225.1212L915.2742,1236.8513L915.2742,1243.8126L913.4498,1244.1967Q912.92175,1244.3087,912.92175,1244.7888L912.92175,1246.197L920.8272,1246.197L920.8272,1244.7888Q920.8272,1244.2927,920.3311,1244.1967Q919.2589,1244.0206,918.45874,1243.8126L918.45874,1236.8513L925.6441,1225.1212Q925.9642,1225.0571,926.38025,1224.9612Q926.7803,1224.8651,927.00433,1224.8171Q927.2284,1224.769,927.3404,1224.737Q927.7405,1224.6411,927.7405,1224.145L927.7405,1222.7047L919.867,1222.7047L919.867,1224.0809Q919.867,1224.6091,920.3311,1224.7051Q922.09143,1225.0571,922.2355,1225.0571L917.83466,1232.5305Q917.25854,1233.5387,916.89044,1234.627Q916.6504,1233.9069,915.9303,1232.5625L911.5455,1225.0891Q911.6575,1225.0891,913.41785,1224.737Q913.8979,1224.6411,913.8979,1224.113L913.8979,1222.7047 Z M765.5023,1222.4326Q762.2698,1222.4326,760.2534,1224.401Q758.38104,1226.2734,758.38104,1228.8658Q758.38104,1231.6984,760.12537,1233.2507Q761.0055,1234.0348,761.9337,1234.4349Q762.60583,1234.7229,766.0625,1235.8112Q766.9586,1236.0833,767.82275,1236.5953Q769.5991,1237.5875,769.5991,1239.4758Q769.5991,1241.4442,768.3509,1242.5964Q767.7748,1243.1725,766.84656,1243.4766Q765.8064,1243.8126,764.4142,1243.8126Q762.9739,1243.8126,760.41345,1242.8845L760.3174,1241.4442Q760.2214,1240.116,760.15735,1239.8439Q760.06134,1239.2838,759.5012,1239.2838L757.90094,1239.2838L757.90094,1245.1888L758.8451,1245.5089Q760.2854,1245.925,761.4696,1246.133Q763.1499,1246.4211,764.68616,1246.4211Q768.3829,1246.4211,770.5113,1244.2927Q772.5437,1242.2604,772.5437,1239.0277Q772.5437,1235.331,769.00696,1233.7468L769.07104,1233.7468Q767.7908,1233.2186,764.94226,1232.2745Q763.9341,1231.9385,763.1019,1231.4424Q761.34155,1230.4662,761.34155,1228.7218Q761.34155,1227.1216,762.4458,1226.1134Q763.598,1225.0571,765.7264,1225.0571Q767.3587,1225.0571,769.5991,1225.6813Q769.6631,1226.5134,769.7272,1227.2335Q769.77515,1227.9537,769.8071,1228.2738Q769.8231,1228.5778,769.8231,1228.5939Q769.9192,1229.1539,770.5113,1229.1539L772.0796,1229.1539L772.0796,1223.7449Q768.87897,1222.4326,765.5023,1222.4326 Z M897.23883,1222.4006L897.30286,1222.4326Q891.82983,1222.4326,888.5812,1225.7773Q885.3006,1229.1539,885.3006,1234.4349Q885.3006,1239.6998,888.38916,1243.0765Q891.44574,1246.4211,896.5027,1246.4211Q901.9117,1246.4211,904.96826,1242.8845L903.72003,1241.5082Q903.52795,1241.3162,903.1919,1241.3162Q902.9679,1241.3162,902.6638,1241.5723Q901.5276,1242.6284,899.78326,1243.2845Q898.69507,1243.6686,896.6787,1243.6686Q893.09406,1243.6686,890.8696,1241.2522Q888.5172,1238.7076,888.5172,1234.4349Q888.5172,1230.2261,890.9016,1227.6497Q893.2541,1225.1852,896.9988,1225.1852Q899.2232,1225.1852,901.94366,1226.0493Q901.94366,1226.0974,901.9757,1226.2894Q901.9917,1226.4655,902.0237,1226.8175Q902.0557,1227.1536,902.0877,1227.5216Q902.1837,1228.8978,902.21576,1228.9939Q902.31177,1229.5859,902.93585,1229.5859L904.50415,1229.5859L904.50415,1225.9053L904.50415,1224.0809Q900.04645,1222.4033,897.2478,1222.4006 Z M524.3536,1222.7047L524.3536,1224.0809Q524.3536,1224.6091,524.8497,1224.7051Q525.1537,1224.8011,526.706,1225.0891L526.706,1236.9954Q526.706,1241.0281,529.2345,1243.7327Q531.77893,1246.4531,536.05176,1246.4531Q540.35657,1246.4531,542.901,1243.7327Q545.39746,1241.0121,545.39746,1236.9954L545.39746,1225.0891L547.25385,1224.737Q547.7819,1224.6251,547.7819,1224.113L547.7819,1222.7047L539.5884,1222.7047L539.5884,1224.0809Q539.5884,1224.593,540.1165,1224.7051Q540.67664,1224.8171,542.2769,1225.0571L542.2769,1236.9634Q542.2769,1239.9559,540.6446,1241.7803Q538.9803,1243.6366,536.08374,1243.6366Q533.1872,1243.6366,531.5229,1241.7803Q529.8906,1240.0039,529.8906,1236.9154L529.8906,1225.0571Q531.3789,1224.8331,532.051,1224.7051Q532.5791,1224.593,532.5791,1224.0809L532.5791,1222.7047 Z M961.7948,1222.7047L961.7948,1224.0809Q961.7948,1224.6091,962.2909,1224.7051Q962.595,1224.8011,964.1472,1225.0891L964.1472,1236.9954Q964.1472,1241.0281,966.6757,1243.7327Q969.22015,1246.4531,973.493,1246.4531Q977.7978,1246.4531,980.3422,1243.7327Q982.8387,1241.0121,982.8387,1236.9954L982.8387,1225.0891L984.69507,1224.737Q985.22314,1224.6251,985.22314,1224.113L985.22314,1222.7047L977.0296,1222.7047L977.0296,1224.0809Q977.0296,1224.593,977.55774,1224.7051Q978.11786,1224.8171,979.71814,1225.0571L979.71814,1236.9634Q979.71814,1239.9559,978.0858,1241.7803Q976.4215,1243.6366,973.52496,1243.6366Q970.6284,1243.6366,968.9641,1241.7803Q967.33185,1240.0039,967.33185,1236.9154L967.33185,1225.0571Q968.8201,1224.8331,969.49225,1224.7051Q970.0203,1224.593,970.0203,1224.0809L970.0203,1222.7047 Z M363.60373,1222.4326Q361.05923,1222.4326,358.88284,1223.3289Q356.75446,1224.209,355.21817,1225.8093Q353.6819,1227.4095,352.84973,1229.618Q352.00156,1231.8424,352.00156,1234.4669Q352.00156,1237.0914,352.84973,1239.3158Q353.6819,1241.5242,355.21817,1243.1245Q356.69043,1244.6768,358.88284,1245.573Q361.10727,1246.4851,363.60373,1246.4851Q366.1002,1246.4851,368.3246,1245.573Q370.453,1244.6927,371.95728,1243.1245Q373.49356,1241.5242,374.3257,1239.3158Q375.14188,1237.1714,375.14188,1234.4989L375.17386,1234.4349Q375.17386,1231.7303,374.35773,1229.5859Q373.52557,1227.3776,371.9893,1225.7773Q370.517,1224.225,368.3246,1223.3289Q366.1482,1222.4326,363.60373,1222.4326 Z"/>
</g>
</g>
</g>
<defs>
<linearGradient id="grad0" gradientUnits="userSpaceOnUse" x1="722.67505" y1="1051.7654" x2="722.67505" y2="1179.8938" >
<stop offset="0.0%" style="stop-color:rgb(63,81,181); stop-opacity:1.0" />
<stop offset="50.9009%" style="stop-color:rgb(244,67,54); stop-opacity:1.0" />
<stop offset="100.0%" style="stop-color:rgb(255,235,59); stop-opacity:1.0" />
</linearGradient>
<linearGradient id="grad1" gradientUnits="userSpaceOnUse" x1="158.68459" y1="1026.8503" x2="158.68457" y2="1292.145" >
<stop offset="0.0%" style="stop-color:rgb(63,81,181); stop-opacity:1.0" />
<stop offset="50.9009%" style="stop-color:rgb(244,67,54); stop-opacity:1.0" />
<stop offset="100.0%" style="stop-color:rgb(255,235,59); stop-opacity:1.0" />
</linearGradient>
<linearGradient id="grad2" gradientUnits="userSpaceOnUse" x1="354.8689" y1="1234.9066" x2="1063.7338" y2="1234.9066" >
<stop offset="0.0%" style="stop-color:rgb(63,81,181); stop-opacity:1.0" />
<stop offset="48.22702%" style="stop-color:rgb(244,67,54); stop-opacity:1.0" />
<stop offset="100.0%" style="stop-color:rgb(255,235,59); stop-opacity:1.0" />
</linearGradient>
</defs>
</svg>