<svg width="704" height="131" viewBox="0 0 704 131" fill="none" xmlns="http://www.w3.org/2000/svg">
<path d="M24.6446 1.11865L2.3636 0.633789C0.334002 3.73129 -1.69561 6.8288 2.26091 14.0647C6.21742 21.3005 16.16 32.6745 26.1026 44.0485L47.8523 44.8153C49.2784 42.3946 50.7045 39.974 46.8366 32.6913C42.9686 25.4085 33.8066 13.2636 24.6446 1.11865Z" fill="url(#paint0_linear_348_1233)"/>
<path d="M121.231 1.75952L99.4687 1.06055L49.7408 72.3868L49.1377 127.297C52.5551 128.38 55.9726 129.463 59.9625 129.584C60.2215 129.592 60.483 129.596 60.7467 129.596C64.5449 129.596 68.8111 128.809 73.0773 128.023L73.4649 78.6101C91.0957 54.9168 108.727 31.2237 116.688 18.4152C124.649 5.60676 122.94 3.68312 121.231 1.75952Z" fill="url(#paint1_linear_348_1233)"/>
<path d="M204.445 3.47864L205.2 21.6743C194.176 25.4748 183.152 29.2752 177.136 40.9932C171.119 52.7112 170.112 72.347 175.466 84.6451C180.821 96.9432 192.538 101.903 204.255 106.863L204.502 129.46C198.973 129.024 193.444 128.587 185.792 125.388C178.14 122.188 168.366 116.226 160.48 105.409C152.594 94.5923 146.598 78.9209 147.298 62.7917C147.998 46.6625 155.396 30.0757 164.998 19.35C174.6 8.62428 186.407 3.75975 193.349 2.09155C195.491 1.57665 197.17 1.36621 198.529 1.36621C201.573 1.36621 203.009 2.42234 204.445 3.47864Z" fill="url(#paint2_linear_348_1233)"/>
<path d="M219.063 3.39771L218.368 21.5961C229.405 25.3594 240.442 29.1226 246.498 40.8204C252.553 52.5182 253.627 72.1505 248.314 84.4663C243 96.7821 231.3 101.782 219.6 106.781L219.428 129.379C224.956 128.924 230.483 128.468 238.124 125.243C245.766 122.018 255.52 116.023 263.37 105.18C271.219 94.3363 277.163 78.645 276.408 62.5183C275.654 46.3916 268.201 29.8297 258.563 19.1365C248.925 8.44317 237.101 3.61863 230.154 1.97363C228.033 1.47143 226.366 1.26562 225.015 1.26562C221.941 1.26562 220.502 2.33161 219.063 3.39771Z" fill="url(#paint3_linear_348_1233)"/>
<path d="M338.093 85.0173L337.825 3.2229C333.841 1.7566 329.858 0.290039 325.915 0.290039C325.708 0.290039 325.502 0.294068 325.295 0.302368C321.15 0.468368 317.053 2.34374 312.956 4.21924L312.988 86.9559C315.285 93.4996 317.582 100.043 321.004 105.611C324.426 111.178 328.972 115.77 333.851 119.794C338.73 123.818 343.942 127.274 348.524 128.689C350.567 129.319 352.484 129.544 354.333 129.544C356.63 129.544 358.819 129.197 361.009 128.85L362.19 108.62C356.47 106.305 350.75 103.989 346.734 100.055C342.718 96.1214 340.405 90.5693 338.093 85.0173Z" fill="url(#paint4_linear_348_1233)"/>
<path d="M400.059 84.9175L399.55 3.12439C403.57 1.60099 407.589 0.0776367 411.581 0.0776367C411.738 0.0776367 411.895 0.0800168 412.051 0.0847168C416.197 0.211317 420.312 2.0479 424.427 3.8844L425.181 86.6176C422.946 93.1826 420.711 99.7477 417.343 105.348C413.974 110.948 409.471 115.583 404.63 119.653C399.789 123.723 394.611 127.228 390.043 128.686C387.926 129.362 385.939 129.598 384.024 129.598C381.806 129.598 379.683 129.282 377.56 128.965L376.187 108.748C381.885 106.378 387.582 104.009 391.561 100.037C395.54 96.0651 397.799 90.4912 400.059 84.9175Z" fill="url(#paint5_linear_348_1233)"/>
<path d="M457.409 22.2522L457.848 3.94543C460.235 2.42193 462.621 0.898255 466.37 0.303955C467.693 0.0940551 469.187 0 470.712 0C473.506 0 476.406 0.315544 478.563 0.812744C481.898 1.58124 483.457 2.78383 485.017 3.98633L485.556 23.0159C480.274 24.2741 474.993 25.5322 470.442 25.5322C470.228 25.5322 470.015 25.5294 469.803 25.5237C465.112 25.3965 461.261 23.8243 457.409 22.2522Z" fill="url(#paint6_linear_348_1233)"/>
<path d="M500.834 129.382L518.816 130.077L522.344 126.648L521.734 24.6218L560.086 24.9028L563.331 21.3331L564.519 4.65588L560.843 0.762329L499.829 0.713867L496.948 3.63062L498.121 125.434L500.834 129.382Z" fill="url(#paint7_linear_348_1233)"/>
<path d="M597.003 5.96912L600.415 1.4502L618.144 1.62964L621.304 4.64673L621.414 39.7213L617.755 43.444L601.425 43.723L596.644 38.2295L597.003 5.96912Z" fill="url(#paint8_linear_348_1233)"/>
<path d="M678.96 5.94324L683.842 1.33496L699.198 1.54065L703.018 4.90271L703.25 124.047L698.506 128.388L682.93 128.253L678.798 125.063L678.976 75.6855L621.391 75.6093L621.342 125.058L617.364 128.271L600.475 128.402L596.493 124.79L597.498 56.7495L601.838 52.8241L678.429 52.6996L678.96 5.94324Z" fill="url(#paint9_linear_348_1233)"/>
<defs>
<linearGradient id="paint0_linear_348_1233" x1="370.304" y1="5.48789" x2="370.304" y2="133.616" gradientUnits="userSpaceOnUse">
<stop stop-color="#3F51B5"/>
<stop offset="0.509009" stop-color="#F44336"/>
<stop offset="1" stop-color="#FFEB3B"/>
</linearGradient>
<linearGradient id="paint1_linear_348_1233" x1="370.304" y1="5.48795" x2="370.304" y2="133.616" gradientUnits="userSpaceOnUse">
<stop stop-color="#3F51B5"/>
<stop offset="0.509009" stop-color="#F44336"/>
<stop offset="1" stop-color="#FFEB3B"/>
</linearGradient>
<linearGradient id="paint2_linear_348_1233" x1="370.304" y1="5.48761" x2="370.304" y2="133.616" gradientUnits="userSpaceOnUse">
<stop stop-color="#3F51B5"/>
<stop offset="0.509009" stop-color="#F44336"/>
<stop offset="1" stop-color="#FFEB3B"/>
</linearGradient>
<linearGradient id="paint3_linear_348_1233" x1="370.304" y1="5.48793" x2="370.304" y2="133.616" gradientUnits="userSpaceOnUse">
<stop stop-color="#3F51B5"/>
<stop offset="0.509009" stop-color="#F44336"/>
<stop offset="1" stop-color="#FFEB3B"/>
</linearGradient>
<linearGradient id="paint4_linear_348_1233" x1="370.304" y1="5.48754" x2="370.304" y2="133.616" gradientUnits="userSpaceOnUse">
<stop stop-color="#3F51B5"/>
<stop offset="0.509009" stop-color="#F44336"/>
<stop offset="1" stop-color="#FFEB3B"/>
</linearGradient>
<linearGradient id="paint5_linear_348_1233" x1="370.304" y1="5.48754" x2="370.304" y2="133.616" gradientUnits="userSpaceOnUse">
<stop stop-color="#3F51B5"/>
<stop offset="0.509009" stop-color="#F44336"/>
<stop offset="1" stop-color="#FFEB3B"/>
</linearGradient>
<linearGradient id="paint6_linear_348_1233" x1="370.304" y1="5.48771" x2="370.304" y2="133.616" gradientUnits="userSpaceOnUse">
<stop stop-color="#3F51B5"/>
<stop offset="0.509009" stop-color="#F44336"/>
<stop offset="1" stop-color="#FFEB3B"/>
</linearGradient>
<linearGradient id="paint7_linear_348_1233" x1="370.304" y1="5.48767" x2="370.304" y2="133.616" gradientUnits="userSpaceOnUse">
<stop stop-color="#3F51B5"/>
<stop offset="0.509009" stop-color="#F44336"/>
<stop offset="1" stop-color="#FFEB3B"/>
</linearGradient>
<linearGradient id="paint8_linear_348_1233" x1="370.304" y1="5.4878" x2="370.304" y2="133.616" gradientUnits="userSpaceOnUse">
<stop stop-color="#3F51B5"/>
<stop offset="0.509009" stop-color="#F44336"/>
<stop offset="1" stop-color="#FFEB3B"/>
</linearGradient>
<linearGradient id="paint9_linear_348_1233" x1="370.304" y1="5.48746" x2="370.304" y2="133.616" gradientUnits="userSpaceOnUse">
<stop stop-color="#3F51B5"/>
<stop offset="0.509009" stop-color="#F44336"/>
<stop offset="1" stop-color="#FFEB3B"/>
</linearGradient>
</defs>
</svg>
