<svg width="282" height="281" viewBox="0 0 282 281" fill="none" xmlns="http://www.w3.org/2000/svg">
<path d="M258.627 94.985L260.262 101.119C265.563 122.377 267.639 138.881 266.49 150.631C266.086 156.506 264.794 163.012 262.613 170.149C257.828 183.661 254.183 192.481 251.678 196.609C244.591 208.429 239.336 216.104 235.915 219.634C231.488 224.879 226.882 229.406 222.097 233.218C217.255 238.237 202.474 246.27 177.755 257.316L177.738 153.825L179.776 149.119C183.716 141.478 189.737 134.757 197.839 128.956C206.651 122.583 226.914 111.259 258.627 94.985ZM143.233 0L143.214 2.1889L143.191 15.4233C154.428 15.4562 169.424 18.3419 188.177 24.0802C200.234 29.6023 211.643 36.5759 222.406 45.001L143.031 91.0654L142.984 113.433L150.022 121.674L142.945 131.411L142.637 280.248L141.127 280.32L147.388 280.623C147.058 216.563 147.413 177.464 148.453 163.323C149.446 148.909 152.033 139.933 156.213 136.394C157.63 134.195 159.061 143.984 160.506 165.761C161.323 205.435 161.723 243.007 161.705 278.476C184.08 275.124 200.543 270.471 211.094 264.517C220.737 259.272 230.674 251.398 240.905 240.894C254.324 226.479 263.986 212.858 269.893 200.03C276.909 185.972 280.872 168.282 281.781 146.961C281.882 136.151 280.874 124.831 278.757 113.001C276.909 104.952 272.177 91.8351 264.559 73.6509C226.403 94.4572 203.543 107.257 195.978 112.05C184.441 119.475 176.439 126.534 171.972 133.227L167.614 120.969L258.753 65.4816L250.276 54.0024L158.648 110.431L153.231 101.817L246.003 46.5959C230.016 31.9019 212.697 19.8923 194.045 10.5668C180.145 5.66771 163.208 2.14544 143.233 0Z" fill="url(#paint0_linear_293_1249)"/>
<path d="M25.109 93.8385L34.2088 98.9744C54.9421 110.438 73.7431 122.172 90.6118 134.178C99.7767 142.636 104.896 149.475 105.971 154.698L106.623 157.266L107.114 258.388C89.9796 250.883 79.753 246.179 76.4344 244.274C68.1114 240.478 57.3995 230.817 44.2987 215.29C38.2311 208.212 31.2435 194.295 23.3359 173.539C18.7052 159.275 16.5362 146.817 16.829 136.165C17.3064 123.704 20.0664 109.595 25.109 93.8385ZM139.032 0.116211L131.979 0.631653C112.313 2.76289 94.4388 7.65162 78.3566 15.2979C69.5852 19.8228 55.5501 30.2553 36.2514 46.5955L129.024 101.817L123.606 110.431L31.979 54.0021L23.5018 65.4812L114.641 120.969L110.283 133.227C107.172 128.04 100.57 121.997 90.4779 115.096C69.5854 102.078 45.3247 88.2632 17.6958 73.6506C5.25358 100.622 -0.547845 124.602 0.291475 145.59C1.68064 182.916 15.8557 215.489 42.8168 243.31C49.8447 250.621 61.3141 258.725 77.2252 267.621C83.8677 271.247 98.3093 274.866 120.55 278.476C120.459 243.002 120.901 205.078 121.876 164.705C123.246 143.67 124.645 134.218 126.074 136.347C130.28 140.48 132.824 149.241 133.705 162.631C134.808 176.039 135.195 215.37 134.866 280.623L141.127 280.32L139.618 280.247L139.308 131.131L131.886 120.735L139.271 113.833L139.224 91.4646L61.3985 45.7256C86.4143 25.0731 112.303 14.9441 139.065 15.3387L139.032 0.116211Z" fill="url(#paint1_linear_293_1249)"/>
<path d="M135.015 0.460083C136.903 0.237913 138.791 0.0159066 141.005 0.00805664C141.046 0.00790664 141.087 0.0078125 141.128 0.0078125C143.312 0.0078125 145.804 0.21028 148.295 0.41272L146.033 15.5586L136.595 15.1879L135.015 0.460083Z" fill="url(#paint2_linear_293_1249)"/>
<path d="M145.019 89.9189L140.963 92.2823L137.543 90.5415L137.185 115.784L141.527 111.724L145.346 116.198L145.019 89.9189Z" fill="url(#paint3_linear_293_1249)"/>
<path d="M145.49 127.909L141.212 133.797L137.013 127.919L134.851 280.633L147.391 280.535L145.49 127.909Z" fill="url(#paint4_linear_293_1249)"/>
<defs>
<linearGradient id="paint0_linear_293_1249" x1="146.083" y1="16.7678" x2="146.083" y2="282.063" gradientUnits="userSpaceOnUse">
<stop stop-color="#3F51B5"/>
<stop offset="0.509009" stop-color="#F44336"/>
<stop offset="1" stop-color="#FFEB3B"/>
</linearGradient>
<linearGradient id="paint1_linear_293_1249" x1="146.083" y1="16.7675" x2="146.083" y2="282.062" gradientUnits="userSpaceOnUse">
<stop stop-color="#3F51B5"/>
<stop offset="0.509009" stop-color="#F44336"/>
<stop offset="1" stop-color="#FFEB3B"/>
</linearGradient>
<linearGradient id="paint2_linear_293_1249" x1="146.083" y1="16.7678" x2="146.083" y2="282.063" gradientUnits="userSpaceOnUse">
<stop stop-color="#3F51B5"/>
<stop offset="0.509009" stop-color="#F44336"/>
<stop offset="1" stop-color="#FFEB3B"/>
</linearGradient>
<linearGradient id="paint3_linear_293_1249" x1="146.083" y1="16.7675" x2="146.083" y2="282.062" gradientUnits="userSpaceOnUse">
<stop stop-color="#3F51B5"/>
<stop offset="0.509009" stop-color="#F44336"/>
<stop offset="1" stop-color="#FFEB3B"/>
</linearGradient>
<linearGradient id="paint4_linear_293_1249" x1="146.083" y1="16.7677" x2="146.083" y2="282.062" gradientUnits="userSpaceOnUse">
<stop stop-color="#3F51B5"/>
<stop offset="0.509009" stop-color="#F44336"/>
<stop offset="1" stop-color="#FFEB3B"/>
</linearGradient>
</defs>
</svg>
