<svg width="105" height="105" viewBox="0 0 105 105" fill="none" xmlns="http://www.w3.org/2000/svg">
<path d="M83.8613 0.416668C79.1738 0.416668 73.4446 5.625 73.4446 10.8333H31.778C31.778 5.625 26.0488 0.416668 21.3613 0.416668H0.527954V47.2917C0.527954 52.5 5.73629 57.7083 10.9446 57.7083H22.403C24.4863 68.125 31.2571 76.9792 47.403 78.5417V89.375C31.778 91.7708 31.778 104.583 31.778 104.583H73.4446C73.4446 104.583 73.4446 91.7708 57.8196 89.375V78.5417C73.9654 76.9792 80.7363 68.125 82.8196 57.7083H94.2779C99.4863 57.7083 104.695 52.5 104.695 47.2917V0.416668H83.8613ZM21.3613 47.2917H10.9446V10.8333H21.3613V47.2917ZM94.2779 47.2917H83.8613V10.8333H94.2779V47.2917Z" fill="#F5F5F5"/>
</svg>
