<svg width="106" height="96" viewBox="0 0 106 96" fill="none" xmlns="http://www.w3.org/2000/svg">
<path fill-rule="evenodd" clip-rule="evenodd" d="M73.7917 2.19271C80.7396 -1.85416 89.4584 3.15104 89.4584 11.1927V28.1667C91.5103 28.1667 93.5421 28.5708 95.4378 29.356C97.3335 30.1413 99.056 31.2922 100.507 32.7431C101.958 34.194 103.109 35.9165 103.894 37.8122C104.679 39.7079 105.083 41.7398 105.083 43.7917C105.083 45.8436 104.679 47.8754 103.894 49.7711C103.109 51.6668 101.958 53.3893 100.507 54.8402C99.056 56.2911 97.3335 57.4421 95.4378 58.2273C93.5421 59.0125 91.5103 59.4167 89.4584 59.4167V75.0417C89.4584 83.625 79.6615 88.526 72.7917 83.375L62.0625 75.3229C56.3272 71.0231 49.6497 68.1521 42.5834 66.9479V81.7604C42.584 85.1653 41.3537 88.4557 39.1193 91.0249C36.885 93.5942 33.7972 95.2692 30.4251 95.7411C27.0531 96.213 23.6241 95.4501 20.7703 93.593C17.9164 91.7358 15.8301 88.9097 14.8959 85.6354L6.71881 57.0104C3.77619 53.5354 1.86119 49.3084 1.18905 44.8047C0.516915 40.301 1.11429 35.6992 2.91404 31.5163C4.71378 27.3335 7.64454 23.7356 11.3769 21.1271C15.1092 18.5185 19.4952 17.0027 24.0417 16.75L39.7605 15.875C47.4513 15.4478 54.9308 13.2004 61.5834 9.31771L73.7917 2.19271ZM19.8438 65.0313L24.9115 82.776C25.1554 83.635 25.7018 84.3767 26.4499 84.8641C27.198 85.3516 28.0972 85.552 28.9815 85.4282C29.8657 85.3044 30.6754 84.8648 31.2608 84.1907C31.8463 83.5165 32.1681 82.6533 32.1667 81.7604V66.0833L24.0417 65.6302C22.6285 65.545 21.2245 65.3447 19.8438 65.0313ZM94.6667 43.7917C94.6667 42.4103 94.118 41.0856 93.1412 40.1088C92.1645 39.1321 90.8397 38.5833 89.4584 38.5833V49C90.8397 49 92.1645 48.4513 93.1412 47.4745C94.118 46.4978 94.6667 45.173 94.6667 43.7917Z" fill="#FAFAFA"/>
</svg>
