<svg width="125" height="125" viewBox="0 0 125 125" fill="none" xmlns="http://www.w3.org/2000/svg">
<path d="M18.2292 36.4583C18.2292 29.5517 20.9728 22.9279 25.8566 18.0441C30.7404 13.1603 37.3642 10.4167 44.2708 10.4167C51.1775 10.4167 57.8013 13.1603 62.6851 18.0441C67.5688 22.9279 70.3125 29.5517 70.3125 36.4583C70.3125 43.365 67.5688 49.9888 62.6851 54.8726C57.8013 59.7563 51.1775 62.5 44.2708 62.5C37.3642 62.5 30.7404 59.7563 25.8566 54.8726C20.9728 49.9888 18.2292 43.365 18.2292 36.4583ZM26.0417 72.9167C19.135 72.9167 12.5112 75.6603 7.62743 80.5441C2.74367 85.4279 0 92.0517 0 98.9583L0 109.375H88.5417V98.9583C88.5417 92.0517 85.798 85.4279 80.9142 80.5441C76.0305 75.6603 69.4067 72.9167 62.5 72.9167H26.0417ZM125 109.375H98.9583V98.9583C98.9583 88.7552 94.7708 79.5313 88.0208 72.9167H98.9583C102.378 72.9167 105.765 73.5903 108.924 74.899C112.084 76.2077 114.954 78.1259 117.373 80.5441C119.791 82.9623 121.709 85.8331 123.018 88.9926C124.326 92.1521 125 95.5385 125 98.9583V109.375ZM80.7292 62.5C77.5499 62.5014 74.3972 61.9207 71.4271 60.7865C77.4303 54.1069 80.7445 45.4392 80.7292 36.4583C80.7431 27.4768 77.427 18.809 71.4219 12.1302C74.9898 10.7677 78.8138 10.2066 82.6227 10.4868C86.4317 10.767 90.1324 11.8816 93.4626 13.7516C96.7927 15.6215 99.6708 18.2011 101.893 21.3074C104.115 24.4138 105.626 27.9708 106.32 31.7265C107.014 35.4822 106.874 39.3445 105.909 43.0398C104.943 46.735 103.177 50.1728 100.735 53.1093C98.293 56.0458 95.235 58.4093 91.7777 60.0321C88.3204 61.655 84.5484 62.4975 80.7292 62.5Z" fill="#F0F0F0"/>
</svg>
